<svg width="356.429931640625px" height="122.02138671875px" xmlns="http://www.w3.org/2000/svg" viewBox="71.7850341796875 13.989306640625003 356.429931640625 122.02138671875" style="background: rgba(0, 0, 0, 0);" preserveAspectRatio="xMidYMid"><defs><linearGradient id="editing-gradow-gradient" x1="0" x2="1" y1="0.5" y2="0.5" gradientUnits="objectBoundingBox"><stop offset="0" stop-color="#f0f"></stop><stop offset="1" stop-color="#0ff"></stop></linearGradient><filter id="editing-gradow-filter" x="-100%" y="-100%" width="300%" height="300%"><feFlood flood-color="#fffcd9" result="flood"></feFlood><feComposite operator="in" in2="SourceAlpha" in="flood" result="shadow"></feComposite><feOffset dx="-4" dy="-4" in="SourceGraphic" result="offset-1"></feOffset><feOffset dx="4" dy="4" in="shadow" result="offset-2"></feOffset><feMerge><feMergeNode in="offset-2"></feMergeNode><feMergeNode in="offset-1"></feMergeNode></feMerge></filter></defs><g filter="url(#editing-gradow-filter)"><g transform="translate(125.90000212192535, 98.9921875)"><path d="M34.50-13.25L34.50-13.25L34.50-13.25Q36.16-12.03 36.16-9.44L36.16-9.44L36.16-9.44Q36.16-6.85 35.04-5.02L35.04-5.02L35.04-5.02Q33.92-3.20 31.74-1.79L31.74-1.79L31.74-1.79Q27.07 1.22 18.91 1.22L18.91 1.22L18.91 1.22Q10.75 1.22 6.30-3.04L6.30-3.04L6.30-3.04Q1.86-7.30 1.86-14.85L1.86-14.85L1.86-14.85Q1.86-25.54 7.42-33.66L7.42-33.66L7.42-33.66Q11.65-39.68 19.20-42.24L19.20-42.24L19.20-42.24Q23.10-43.52 26.94-43.52L26.94-43.52L26.94-43.52Q30.78-43.52 33.15-43.01L33.15-43.01L33.15-43.01Q35.52-42.50 37.31-41.47L37.31-41.47L37.31-41.47Q41.22-39.23 41.22-35.65L41.22-35.65L41.22-35.65Q41.22-32.38 38.14-29.95L38.14-29.95L38.14-29.95Q35.33-27.78 33.02-27.78L33.02-27.78L33.02-27.78Q30.72-27.78 29.76-28.10L29.76-28.10L29.76-28.10Q30.02-30.40 30.02-31.90L30.02-31.90L30.02-31.90Q30.02-33.41 29.95-34.50L29.95-34.50L29.95-34.50Q29.89-35.58 29.57-36.61L29.57-36.61L29.57-36.61Q28.93-38.98 26.98-38.98L26.98-38.98L26.98-38.98Q25.02-38.98 23.07-37.15L23.07-37.15L23.07-37.15Q21.12-35.33 19.46-32.26L19.46-32.26L19.46-32.26Q15.68-25.28 15.68-17.02L15.68-17.02L15.68-17.02Q15.68-13.06 17.92-10.78L17.92-10.78L17.92-10.78Q20.16-8.51 24.96-8.51L24.96-8.51L24.96-8.51Q28.54-8.51 31.94-10.88L31.94-10.88L31.94-10.88Q33.41-11.90 34.50-13.25ZM66.43-29.57L66.43-29.57L66.43-29.57Q67.39-31.49 67.39-33.28L67.39-33.28L67.39-33.28Q67.39-35.07 67.20-36.06L67.20-36.06L67.20-36.06Q67.01-37.06 66.56-37.82L66.56-37.82L66.56-37.82Q65.60-39.49 63.68-39.49L63.68-39.49L63.68-39.49Q61.31-39.49 59.39-37.76L59.39-37.76L59.39-37.76Q57.34-35.97 57.34-33.15L57.34-33.15L57.34-33.15Q57.34-31.36 58.59-29.98L58.59-29.98L58.59-29.98Q59.84-28.61 61.76-27.33L61.76-27.33L61.76-27.33Q63.68-26.05 65.86-24.77L65.86-24.77L65.86-24.77Q68.03-23.49 69.95-21.95L69.95-21.95L69.95-21.95Q74.37-18.43 74.37-13.70L74.37-13.70L74.37-13.70Q74.37-10.50 72.67-7.78L72.67-7.78L72.67-7.78Q70.98-5.06 68.16-3.07L68.16-3.07L68.16-3.07Q62.02 1.28 53.89 1.28L53.89 1.28L53.89 1.28Q47.30 1.28 43.90-0.86L43.90-0.86L43.90-0.86Q40.51-3.01 40.51-6.27L40.51-6.27L40.51-6.27Q40.51-12.10 45.06-13.57L45.06-13.57L45.06-13.57Q46.34-14.02 48.29-14.02L48.29-14.02L48.29-14.02Q50.24-14.02 52.48-13.18L52.48-13.18L52.48-13.18Q51.46-10.56 51.46-8.19L51.46-8.19L51.46-8.19Q51.46-3.07 55.10-3.07L55.10-3.07L55.10-3.07Q57.47-3.07 59.42-4.80L59.42-4.80L59.42-4.80Q61.38-6.53 61.38-8.48L61.38-8.48L61.38-8.48Q61.38-10.43 60.13-11.84L60.13-11.84L60.13-11.84Q58.88-13.25 57.02-14.37L57.02-14.37L57.02-14.37Q55.17-15.49 53.02-16.58L53.02-16.58L53.02-16.58Q50.88-17.66 49.02-19.20L49.02-19.20L49.02-19.20Q44.67-22.72 44.67-28.35L44.67-28.35L44.67-28.35Q44.67-32 46.46-34.85L46.46-34.85L46.46-34.85Q48.26-37.70 51.14-39.62L51.14-39.62L51.14-39.62Q56.90-43.52 63.97-43.52L63.97-43.52L63.97-43.52Q71.04-43.52 74.46-41.41L74.46-41.41L74.46-41.41Q77.89-39.30 77.89-35.71L77.89-35.71L77.89-35.71Q77.89-32.58 75.46-30.59L75.46-30.59L75.46-30.59Q73.34-28.93 70.78-28.93L70.78-28.93L70.78-28.93Q68.22-28.93 66.43-29.57ZM117.38-29.57L117.38-29.57L117.38-29.57Q118.34-31.49 118.34-33.28L118.34-33.28L118.34-33.28Q118.34-35.07 118.14-36.06L118.14-36.06L118.14-36.06Q117.95-37.06 117.50-37.82L117.50-37.82L117.50-37.82Q116.54-39.49 114.62-39.49L114.62-39.49L114.62-39.49Q112.26-39.49 110.34-37.76L110.34-37.76L110.34-37.76Q108.29-35.97 108.29-33.15L108.29-33.15L108.29-33.15Q108.29-31.36 109.54-29.98L109.54-29.98L109.54-29.98Q110.78-28.61 112.70-27.33L112.70-27.33L112.70-27.33Q114.62-26.05 116.80-24.77L116.80-24.77L116.80-24.77Q118.98-23.49 120.90-21.95L120.90-21.95L120.90-21.95Q125.31-18.43 125.31-13.70L125.31-13.70L125.31-13.70Q125.31-10.50 123.62-7.78L123.62-7.78L123.62-7.78Q121.92-5.06 119.10-3.07L119.10-3.07L119.10-3.07Q112.96 1.28 104.83 1.28L104.83 1.28L104.83 1.28Q98.24 1.28 94.85-0.86L94.85-0.86L94.85-0.86Q91.46-3.01 91.46-6.27L91.46-6.27L91.46-6.27Q91.46-12.10 96-13.57L96-13.57L96-13.57Q97.28-14.02 99.23-14.02L99.23-14.02L99.23-14.02Q101.18-14.02 103.42-13.18L103.42-13.18L103.42-13.18Q102.40-10.56 102.40-8.19L102.40-8.19L102.40-8.19Q102.40-3.07 106.05-3.07L106.05-3.07L106.05-3.07Q108.42-3.07 110.37-4.80L110.37-4.80L110.37-4.80Q112.32-6.53 112.32-8.48L112.32-8.48L112.32-8.48Q112.32-10.43 111.07-11.84L111.07-11.84L111.07-11.84Q109.82-13.25 107.97-14.37L107.97-14.37L107.97-14.37Q106.11-15.49 103.97-16.58L103.97-16.58L103.97-16.58Q101.82-17.66 99.97-19.20L99.97-19.20L99.97-19.20Q95.62-22.72 95.62-28.35L95.62-28.35L95.62-28.35Q95.62-32 97.41-34.85L97.41-34.85L97.41-34.85Q99.20-37.70 102.08-39.62L102.08-39.62L102.08-39.62Q107.84-43.52 114.91-43.52L114.91-43.52L114.91-43.52Q121.98-43.52 125.41-41.41L125.41-41.41L125.41-41.41Q128.83-39.30 128.83-35.71L128.83-35.71L128.83-35.71Q128.83-32.58 126.40-30.59L126.40-30.59L126.40-30.59Q124.29-28.93 121.73-28.93L121.73-28.93L121.73-28.93Q119.17-28.93 117.38-29.57ZM150.72-2.69L150.72-2.69L150.72-2.69Q147.65 1.28 140.03 1.28L140.03 1.28L140.03 1.28Q136.06 1.28 133.18-1.12L133.18-1.12L133.18-1.12Q130.30-3.52 130.30-6.98L130.30-6.98L130.30-6.98Q130.30-8.90 130.50-9.86L130.50-9.86L134.78-32.64L147.78-33.92L143.10-9.22L143.10-9.22Q142.85-7.81 142.85-6.98L142.85-6.98L142.85-6.98Q142.85-3.26 145.09-3.26L145.09-3.26L145.09-3.26Q147.58-3.26 149.38-6.66L149.38-6.66L149.38-6.66Q149.95-7.74 150.21-9.15L150.21-9.15L154.75-32.64L167.36-33.92L162.62-8.96L162.62-8.96Q162.43-8 162.43-6.98L162.43-6.98L162.43-6.98Q162.43-5.95 163.01-4.83L163.01-4.83L163.01-4.83Q163.58-3.71 165.44-3.46L165.44-3.46L165.44-3.46Q165.06-1.92 163.71-0.90L163.71-0.90L163.71-0.90Q160.90 1.28 157.86 1.28L157.86 1.28L157.86 1.28Q154.82 1.28 153.02 0.19L153.02 0.19L153.02 0.19Q151.23-0.90 150.72-2.69ZM186.18-3.52L186.18-3.52L186.18-3.52Q184.19 1.28 177.86 1.28L177.86 1.28L177.86 1.28Q174.59 1.28 172.54-0.96L172.54-0.96L172.54-0.96Q170.82-2.94 170.82-4.93L170.82-4.93L170.82-4.93Q170.82-10.11 173.18-20.22L173.18-20.22L175.55-32.64L188.54-33.92L184.64-13.70L184.64-13.70Q183.55-8.96 183.55-7.30L183.55-7.30L183.55-7.30Q183.55-3.65 186.18-3.52ZM176.70-41.54L176.70-41.54L176.70-41.54Q176.70-44.03 178.78-45.38L178.78-45.38L178.78-45.38Q180.86-46.72 183.87-46.72L183.87-46.72L183.87-46.72Q186.88-46.72 188.70-45.38L188.70-45.38L188.70-45.38Q190.53-44.03 190.53-41.54L190.53-41.54L190.53-41.54Q190.53-39.04 188.51-37.76L188.51-37.76L188.51-37.76Q186.50-36.48 183.49-36.48L183.49-36.48L183.49-36.48Q180.48-36.48 178.59-37.76L178.59-37.76L178.59-37.76Q176.70-39.04 176.70-41.54ZM192.64-6.40L192.64-6.40L192.64-6.40Q192.64-8.13 193.54-12.48L193.54-12.48L196.93-29.76L193.15-29.76L193.41-31.68L193.41-31.68Q201.09-33.98 208.51-39.62L208.51-39.62L211.58-39.62L210.05-32.64L215.04-32.64L214.46-29.76L209.54-29.76L206.27-12.48L206.27-12.48Q205.44-8.51 205.44-7.17L205.44-7.17L205.44-7.17Q205.44-4.10 208.13-3.46L208.13-3.46L208.13-3.46Q207.49-1.28 205.18 0L205.18 0L205.18 0Q202.88 1.28 199.62 1.28L199.62 1.28L199.62 1.28Q196.35 1.28 194.50-0.77L194.50-0.77L194.50-0.77Q192.64-2.82 192.64-6.40ZM240.38-10.82L240.38-10.82L240.38-10.82Q241.98-9.73 241.98-7.33L241.98-7.33L241.98-7.33Q241.98-4.93 240.77-3.39L240.77-3.39L240.77-3.39Q239.55-1.86 237.57-0.83L237.57-0.83L237.57-0.83Q233.47 1.28 229.06 1.28L229.06 1.28L229.06 1.28Q224.64 1.28 222.05 0.32L222.05 0.32L222.05 0.32Q219.46-0.64 217.73-2.43L217.73-2.43L217.73-2.43Q214.34-5.82 214.34-12.03L214.34-12.03L214.34-12.03Q214.34-21.70 219.58-27.58L219.58-27.58L219.58-27.58Q225.22-33.92 235.01-33.92L235.01-33.92L235.01-33.92Q241.09-33.92 244.10-31.36L244.10-31.36L244.10-31.36Q246.34-29.44 246.34-26.30L246.34-26.30L246.34-26.30Q246.34-15.04 226.88-15.04L226.88-15.04L226.88-15.04Q226.62-13.38 226.62-11.97L226.62-11.97L226.62-11.97Q226.62-9.02 227.94-7.90L227.94-7.90L227.94-7.90Q229.25-6.78 231.68-6.78L231.68-6.78L231.68-6.78Q234.11-6.78 236.70-7.90L236.70-7.90L236.70-7.90Q239.30-9.02 240.38-10.82ZM227.33-17.79L227.33-17.79L227.33-17.79Q231.87-17.79 234.50-20.61L234.50-20.61L234.50-20.61Q237.12-23.30 237.12-27.58L237.12-27.58L237.12-27.58Q237.12-29.06 236.58-29.86L236.58-29.86L236.58-29.86Q236.03-30.66 234.94-30.66L234.94-30.66L234.94-30.66Q233.86-30.66 232.93-30.24L232.93-30.24L232.93-30.24Q232-29.82 231.04-28.42L231.04-28.42L231.04-28.42Q228.67-25.22 227.33-17.79Z" fill="url(#editing-gradow-gradient)"></path></g></g><style>text {
  font-size: 64px;
  font-family: Arial Black;
  dominant-baseline: central;
  text-anchor: middle;
}</style></svg>