<?xml version="1.0" standalone="no"?>
<!DOCTYPE svg PUBLIC "-//W3C//DTD SVG 20010904//EN"
 "http://www.w3.org/TR/2001/REC-SVG-20010904/DTD/svg10.dtd">
<svg version="1.0" xmlns="http://www.w3.org/2000/svg"
 width="1200.000000pt" height="600.000000pt" viewBox="0 0 1200.000000 600.000000"
 preserveAspectRatio="xMidYMid meet">

<g transform="translate(0.000000,600.000000) scale(0.100000,-0.100000)"
fill="#000000" stroke="none">
<path d="M1782 4498 c-9 -9 -12 -98 -12 -339 l0 -328 28 -19 c22 -16 337 -199
550 -320 75 -42 72 -25 72 -423 0 -310 2 -358 16 -369 8 -8 56 -37 107 -65 51
-28 166 -94 257 -146 192 -110 195 -112 209 -95 8 9 10 223 9 711 l-3 698 -65
40 c-36 22 -148 88 -250 147 -102 58 -275 158 -385 222 -399 230 -517 298
-519 298 -1 0 -7 -5 -14 -12z"/>
<path d="M11215 3566 c-66 -21 -101 -43 -144 -92 -47 -54 -61 -95 -61 -179 1
-129 66 -199 253 -271 178 -68 219 -88 259 -122 47 -42 61 -80 56 -146 -14
-170 -203 -235 -476 -165 -41 10 -79 19 -84 19 -5 0 -8 -17 -6 -37 3 -35 5
-37 73 -62 63 -23 85 -26 215 -26 144 0 145 0 206 32 167 87 223 276 122 413
-28 39 -94 80 -178 113 -328 126 -357 149 -348 279 7 92 60 147 166 169 64 13
196 1 272 -26 64 -23 70 -20 70 24 0 36 -3 40 -32 50 -126 41 -283 52 -363 27z"/>
<path d="M4015 3548 c-40 -112 -239 -658 -325 -888 -27 -74 -50 -141 -50 -147
0 -10 23 -13 84 -13 57 0 87 4 93 13 4 6 26 66 48 132 l40 120 210 0 210 0 45
-130 45 -130 84 -3 c46 -2 87 1 91 5 4 4 -17 73 -46 153 -30 80 -92 251 -138
380 -47 129 -99 273 -116 320 -18 47 -39 105 -47 130 -24 70 -25 70 -130 70
-66 0 -95 -4 -98 -12z m185 -405 c43 -127 76 -234 73 -237 -8 -8 -308 -8 -315
0 -4 3 25 96 62 207 85 253 91 269 96 264 2 -2 40 -108 84 -234z"/>
<path d="M9410 3030 l0 -530 311 0 310 0 -3 41 -3 40 -250 0 c-137 -1 -256 3
-263 7 -9 7 -12 56 -10 213 l3 204 225 5 225 5 0 35 0 35 -227 3 -228 2 0 190
c0 145 3 190 13 190 6 1 126 1 265 0 l252 -1 0 46 0 45 -310 0 -310 0 0 -530z"/>
<path d="M10215 3548 c-3 -7 -4 -245 -3 -528 l3 -515 40 0 40 0 3 248 c1 136
4 247 6 247 3 0 94 -87 203 -193 336 -327 312 -307 371 -307 29 0 52 4 52 8 0
4 -119 124 -265 266 -146 142 -265 264 -265 270 0 6 110 121 245 256 135 135
245 248 245 252 0 5 -23 8 -51 8 l-51 0 -237 -240 c-130 -132 -240 -240 -244
-240 -4 0 -7 108 -7 240 l0 240 -40 0 c-23 0 -43 -5 -45 -12z"/>
<path d="M1400 3035 l0 -425 55 0 55 0 0 198 c0 108 4 203 9 210 6 10 15 5 36
-20 25 -31 202 -228 305 -340 l45 -49 69 3 70 3 -100 110 c-156 173 -294 332
-294 340 0 4 83 93 185 198 l186 192 -74 3 -74 3 -163 -166 c-90 -91 -167
-171 -171 -177 -19 -30 -24 15 -20 173 l3 169 -61 0 -61 0 0 -425z"/>
<path d="M900 3430 c0 -5 5 -10 11 -10 5 0 7 5 4 10 -3 6 -8 10 -11 10 -2 0
-4 -4 -4 -10z"/>
<path d="M870 3409 c0 -5 5 -7 10 -4 6 3 10 8 10 11 0 2 -4 4 -10 4 -5 0 -10
-5 -10 -11z"/>
<path d="M830 3381 c0 -5 -14 -13 -31 -16 -23 -5 -28 -10 -18 -16 7 -4 16 -4
19 0 3 5 15 11 28 15 22 7 31 26 12 26 -5 0 -10 -4 -10 -9z"/>
<path d="M694 3315 c-16 -12 -17 -14 -3 -15 9 0 19 7 23 15 7 19 5 19 -20 0z"/>
<path d="M880 3323 c-8 -4 -21 -14 -28 -25 -7 -10 -20 -18 -28 -18 -9 0 -30
-11 -48 -25 -18 -14 -38 -25 -44 -25 -7 0 -12 -4 -12 -10 0 -5 -5 -10 -10 -10
-6 0 -33 -16 -61 -35 -28 -19 -60 -35 -70 -35 -11 0 -19 -4 -19 -9 0 -10 -44
-29 -80 -33 -14 -2 -24 -9 -22 -16 1 -7 -11 -18 -28 -23 -16 -6 -30 -15 -30
-19 0 -5 -8 -11 -19 -15 -18 -5 -19 -26 -26 -381 -6 -315 -5 -378 6 -390 19
-18 207 -131 339 -202 36 -19 92 -52 125 -72 57 -36 159 -95 585 -340 102 -59
201 -116 220 -128 47 -29 55 -28 125 15 33 20 125 73 205 119 80 45 226 129
325 186 99 57 234 135 300 173 238 136 310 182 313 196 3 17 -22 33 -345 218
-116 66 -220 121 -230 121 -10 -1 -54 -23 -98 -50 -44 -27 -123 -73 -175 -101
-52 -29 -150 -85 -218 -126 -132 -79 -169 -88 -213 -55 -13 10 -80 50 -149 89
-474 268 -519 295 -529 323 -5 14 -12 162 -16 330 -4 224 -9 306 -18 312 -6 4
-7 8 -2 8 14 0 13 52 0 56 -5 1 -17 0 -25 -3z m-165 -213 c3 -6 -1 -7 -9 -4
-18 7 -21 14 -7 14 6 0 13 -4 16 -10z m-260 -148 c-3 -3 -11 0 -18 7 -9 10 -8
11 6 5 10 -3 15 -9 12 -12z"/>
<path d="M5045 3286 c-27 -7 -78 -27 -112 -44 -34 -18 -66 -32 -71 -32 -4 0
-12 15 -17 33 -10 32 -10 32 -82 35 l-73 3 0 -391 0 -391 88 3 87 3 3 298 2
298 57 26 c43 20 75 27 125 27 61 1 70 -2 95 -27 l28 -27 5 -298 5 -297 85 0
85 0 3 298 2 298 57 26 c43 20 75 27 125 27 61 1 70 -2 95 -27 l28 -27 3 -301
3 -300 87 3 87 3 0 325 c0 287 -2 329 -17 356 -68 124 -230 146 -414 54 l-82
-40 -38 39 c-57 57 -144 73 -249 47z"/>
<path d="M6265 3294 c-78 -11 -153 -27 -187 -41 l-38 -15 0 -65 c0 -55 3 -64
15 -59 78 30 140 40 237 41 104 0 108 -1 135 -28 25 -24 28 -36 32 -108 l3
-81 -68 9 c-201 24 -335 -21 -385 -131 -25 -55 -25 -157 0 -212 23 -50 83
-101 136 -115 66 -18 162 -6 232 29 34 17 64 36 68 42 11 18 22 11 31 -22 l10
-33 74 0 75 0 3 294 c3 345 -2 377 -68 434 -22 18 -58 39 -80 46 -43 13 -177
22 -225 15z m165 -463 c24 -7 25 -10 25 -81 l0 -74 -49 -30 c-37 -23 -63 -31
-112 -34 -60 -4 -65 -3 -94 26 -25 25 -30 39 -30 77 0 91 44 125 160 124 41
-1 86 -4 100 -8z"/>
<path d="M7750 3290 c-159 -27 -256 -135 -282 -317 -23 -158 23 -328 109 -404
21 -17 62 -44 93 -58 49 -23 67 -26 165 -26 98 0 116 3 166 26 145 68 219 218
206 419 -17 262 -197 404 -457 360z m185 -160 c22 -14 44 -41 62 -78 25 -51
28 -67 28 -162 0 -97 -2 -110 -30 -165 -41 -81 -85 -108 -172 -102 -79 6 -117
32 -151 105 -22 48 -25 69 -25 163 0 99 3 113 29 166 23 46 38 63 74 81 55 28
131 25 185 -8z"/>
<path d="M8722 3285 c-35 -8 -93 -30 -129 -50 -36 -20 -67 -35 -68 -33 -2 2
-7 19 -12 38 l-9 35 -72 3 -72 3 0 -381 c0 -209 -1 -383 -2 -387 -2 -5 36 -9
85 -11 l87 -3 0 289 c0 325 -5 303 80 341 62 27 139 36 184 21 69 -22 70 -30
76 -355 l5 -290 88 -3 88 -3 -3 333 c-3 329 -3 333 -26 371 -50 80 -168 112
-300 82z"/>
<path d="M620 3268 c-20 -17 -21 -20 -5 -14 11 5 28 11 38 13 9 3 17 9 17 14
0 15 -24 9 -50 -13z"/>
<path d="M6770 3210 l0 -70 206 -2 206 -3 -216 -253 -217 -254 3 -61 3 -62
313 -3 312 -2 0 70 0 70 -210 0 c-115 0 -210 3 -210 8 1 4 95 117 210 251
l210 245 0 68 0 68 -305 0 -305 0 0 -70z"/>
<path d="M530 3222 c-32 -15 -33 -16 -12 -20 15 -2 31 4 43 17 23 25 17 25
-31 3z"/>
<path d="M469 3193 c-2 -5 -24 -23 -48 -41 -25 -17 -38 -32 -30 -32 8 0 25 9
37 20 12 11 25 20 31 20 10 0 24 30 17 37 -2 2 -6 1 -7 -4z"/>
</g>
</svg>
