<?xml version="1.0"?>
<svg xmlns="http://www.w3.org/2000/svg" viewBox="0 0 64 64" width="512" height="512"><g id="cluster"><path d="M42,45h-.08A5.62,5.62,0,0,0,42,44a7.008,7.008,0,0,0-7-7,6.659,6.659,0,0,0-5.3,2.67A6.187,6.187,0,0,0,27,39a6,6,0,0,0-6,6v.13A4,4,0,0,0,22,53h3v6c0,2.06,3.11,3,6,3s6-.94,6-3V53h5a4,4,0,0,0,0-8ZM35.01,58.95C34.87,59.25,33.48,60,31,60s-3.87-.75-4-1V57.31A11.044,11.044,0,0,0,31,58a10.888,10.888,0,0,0,4.01-.7ZM31,56c-2.48,0-3.87-.75-4-1V53.31A11.044,11.044,0,0,0,31,54a10.8,10.8,0,0,0,4-.7l.01,1.65C34.86,55.25,33.48,56,31,56Zm0-6a10.834,10.834,0,0,0,4-.7v1.65c-.15.31-1.53,1.05-4,1.05s-3.87-.75-4-1V49.31A11.044,11.044,0,0,0,31,50Zm-3.98-3c.26-.33,1.63-1,3.98-1s3.72.67,3.98,1c-.26.33-1.63,1-3.98,1S27.28,47.33,27.02,47ZM42,51H37V47c0-2.06-3.11-3-6-3s-6,.94-6,3v4H22a2,2,0,0,1,0-4,1,1,0,0,0,1-1V45a4,4,0,0,1,4-4,4.4,4.4,0,0,1,2.42.82,1,1,0,0,0,.79.16,1.055,1.055,0,0,0,.65-.46A4.831,4.831,0,0,1,35,39a5,5,0,0,1,5,5,5.2,5.2,0,0,1-.29,1.67,1.014,1.014,0,0,0,.12.91,1.028,1.028,0,0,0,.82.42H42a2,2,0,0,1,0,4Z"/><path d="M58,10h-.08A5.62,5.62,0,0,0,58,9a7.008,7.008,0,0,0-7-7,6.659,6.659,0,0,0-5.3,2.67A6.187,6.187,0,0,0,43,4a6,6,0,0,0-6,6v.13A4,4,0,0,0,38,18h3v6c0,2.06,3.11,3,6,3s6-.94,6-3V18h5a4,4,0,0,0,0-8ZM51.01,23.95C50.87,24.25,49.48,25,47,25s-3.87-.75-4-1V22.31A11.044,11.044,0,0,0,47,23a10.888,10.888,0,0,0,4.01-.7ZM47,21c-2.48,0-3.87-.75-4-1V18.31A11.044,11.044,0,0,0,47,19a10.8,10.8,0,0,0,4-.7l.01,1.65C50.86,20.25,49.48,21,47,21Zm0-6a10.834,10.834,0,0,0,4-.7v1.65c-.15.31-1.53,1.05-4,1.05s-3.87-.75-4-1V14.31A11.044,11.044,0,0,0,47,15Zm-3.98-3c.26-.33,1.63-1,3.98-1s3.72.67,3.98,1c-.26.33-1.63,1-3.98,1S43.28,12.33,43.02,12ZM58,16H53V12c0-2.06-3.11-3-6-3s-6,.94-6,3v4H38a2,2,0,0,1,0-4,1,1,0,0,0,1-1V10a4,4,0,0,1,4-4,4.4,4.4,0,0,1,2.42.82,1,1,0,0,0,.79.16,1.055,1.055,0,0,0,.65-.46A4.831,4.831,0,0,1,51,4a5,5,0,0,1,5,5,5.2,5.2,0,0,1-.29,1.67,1.014,1.014,0,0,0,.12.91,1.028,1.028,0,0,0,.82.42H58a2,2,0,0,1,0,4Z"/><path d="M26,10h-.08A5.62,5.62,0,0,0,26,9a7.008,7.008,0,0,0-7-7,6.659,6.659,0,0,0-5.3,2.67A6.187,6.187,0,0,0,11,4a6,6,0,0,0-6,6v.13A4,4,0,0,0,6,18H9v6c0,2.06,3.11,3,6,3s6-.94,6-3V18h5a4,4,0,0,0,0-8ZM19.01,23.95C18.87,24.25,17.48,25,15,25s-3.87-.75-4-1V22.31A11.044,11.044,0,0,0,15,23a10.888,10.888,0,0,0,4.01-.7ZM15,21c-2.48,0-3.87-.75-4-1V18.31A11.044,11.044,0,0,0,15,19a10.8,10.8,0,0,0,4-.7l.01,1.65C18.86,20.25,17.48,21,15,21Zm0-6a10.834,10.834,0,0,0,4-.7v1.65c-.15.31-1.53,1.05-4,1.05s-3.87-.75-4-1V14.31A11.044,11.044,0,0,0,15,15Zm-3.98-3c.26-.33,1.63-1,3.98-1s3.72.67,3.98,1c-.26.33-1.63,1-3.98,1S11.28,12.33,11.02,12ZM26,16H21V12c0-2.06-3.11-3-6-3s-6,.94-6,3v4H6a2,2,0,0,1,0-4,1,1,0,0,0,1-1V10a4,4,0,0,1,4-4,4.4,4.4,0,0,1,2.42.82,1.011,1.011,0,0,0,.79.16,1.055,1.055,0,0,0,.65-.46A4.831,4.831,0,0,1,19,4a5,5,0,0,1,5,5,5.2,5.2,0,0,1-.29,1.67,1.014,1.014,0,0,0,.12.91,1.028,1.028,0,0,0,.82.42H26a2,2,0,0,1,0,4Z"/><rect x="14" y="29" width="2" height="2"/><path d="M4,31h8V29H3a1,1,0,0,0-1,1V49a1,1,0,0,0,1,1H16V48H4Z"/><rect x="48" y="29" width="2" height="2"/><path d="M61,29H52v2h8V48H48v2H61a1,1,0,0,0,1-1V30A1,1,0,0,0,61,29Z"/><path d="M39.777,25.223a10.994,10.994,0,0,0-15.554,0l1.414,1.414a9,9,0,0,1,12.726,0Z"/><path d="M36.951,28.056a6.989,6.989,0,0,0-9.9,0l1.421,1.408a4.988,4.988,0,0,1,7.06,0Z"/><path d="M29,33a3,3,0,1,0,3-3A3,3,0,0,0,29,33Zm4,0a1,1,0,1,1-1-1A1,1,0,0,1,33,33Z"/></g></svg>
