<?xml version="1.0" standalone="no"?>
<!DOCTYPE svg PUBLIC "-//W3C//DTD SVG 20010904//EN"
 "http://www.w3.org/TR/2001/REC-SVG-20010904/DTD/svg10.dtd">
<svg version="1.0" xmlns="http://www.w3.org/2000/svg"
 width="315.000000pt" height="315.000000pt" viewBox="0 0 315.000000 315.000000"
 preserveAspectRatio="xMidYMid meet">

<g transform="translate(0.000000,315.000000) scale(0.100000,-0.100000)"
fill="#000000" stroke="none">
<path d="M1415 3139 c-520 -51 -995 -373 -1233 -838 -103 -200 -154 -375 -174
-597 -33 -377 80 -767 311 -1075 458 -609 1300 -802 1981 -453 154 78 268 162
395 289 215 215 349 455 426 765 22 87 24 115 24 345 0 230 -2 258 -24 345
-117 469 -402 838 -812 1050 -278 143 -579 200 -894 169z m463 -323 c275 -69
503 -210 681 -422 133 -160 216 -324 268 -531 25 -98 27 -126 27 -288 0 -162
-2 -190 -27 -288 -121 -483 -471 -833 -954 -954 -98 -25 -125 -27 -293 -27
-168 0 -195 2 -293 27 -281 70 -507 210 -686 423 -133 160 -216 324 -268 531
-25 98 -27 126 -27 288 0 162 2 190 27 288 131 521 537 893 1066 977 31 5 128
7 216 5 130 -3 179 -8 263 -29z"/>
<path d="M1804 2250 c-12 -4 -74 -42 -139 -84 -65 -42 -121 -76 -124 -76 -4 0
-14 12 -23 27 l-16 27 -11 -39 c-6 -22 -12 -56 -13 -75 -3 -34 -2 -35 47 -46
28 -7 58 -13 69 -13 17 -1 18 0 1 25 -9 14 -15 27 -13 29 22 20 243 156 261
160 17 5 32 -1 53 -18 16 -14 46 -29 68 -35 38 -11 38 -11 31 15 -20 83 -115
134 -191 103z"/>
<path d="M770 1575 l0 -495 308 2 307 3 3 493 2 492 -310 0 -310 0 0 -495z
m514 353 c8 -13 8 -23 0 -35 -10 -16 -33 -18 -201 -21 -208 -3 -222 1 -209 53
l6 25 197 -2 c174 -3 197 -5 207 -20z m1 -149 c4 -5 4 -21 1 -35 l-6 -24 -203
2 c-185 3 -202 4 -205 21 -9 46 -4 47 207 47 130 0 202 -4 206 -11z m-1 -161
c8 -13 8 -23 0 -35 -10 -16 -33 -18 -199 -21 -193 -3 -215 1 -215 37 0 38 18
42 214 39 167 -3 190 -5 200 -20z m-180 -351 c21 -16 18 -45 -6 -61 -35 -22
-74 27 -48 59 15 18 31 19 54 2z"/>
<path d="M1772 1578 l3 -493 308 -3 307 -2 0 495 0 495 -310 0 -310 0 2 -492z
m514 347 c13 -51 -2 -55 -205 -55 -191 0 -211 4 -211 40 0 36 19 40 217 40
l193 0 6 -25z m-1 -170 l0 -30 -202 -3 -203 -2 -6 24 c-3 14 -3 30 1 36 4 7
72 10 208 8 l202 -3 0 -30z m-1 -137 c8 -13 8 -23 0 -35 -10 -16 -33 -18 -199
-21 -193 -3 -215 1 -215 37 0 38 18 42 214 39 167 -3 190 -5 200 -20z m-170
-360 c22 -35 -27 -74 -59 -48 -20 17 -19 47 3 59 23 14 42 10 56 -11z"/>
<path d="M1564 1156 c9 -15 16 -30 14 -32 -17 -17 -244 -155 -262 -160 -16 -4
-32 2 -52 19 -16 14 -46 29 -67 35 -36 10 -38 10 -31 -11 16 -54 37 -80 81
-99 30 -13 57 -18 80 -15 19 3 92 43 164 88 71 45 131 80 133 78 1 -2 10 -15
19 -28 18 -27 18 -27 36 51 16 70 15 75 -26 81 -21 4 -54 10 -73 13 l-35 7 19
-27z"/>
</g>
</svg>
