<svg height="512pt" viewBox="-16 0 512 512" width="512pt" xmlns="http://www.w3.org/2000/svg"><path d="m90 151h30v30h-30zm0 0"/><path d="m0 497c0 8.289062 6.710938 15 15 15h180c8.289062 0 15-6.710938 15-15v-226h-210zm0 0"/><path d="m195 61h-180c-8.289062 0-15 6.710938-15 15v165h210v-165c0-8.289062-6.710938-15-15-15zm-45 135c0 8.289062-6.710938 15-15 15h-60c-8.289062 0-15-6.710938-15-15v-60c0-8.289062 6.710938-15 15-15h60c8.289062 0 15 6.710938 15 15zm0 0"/><path d="m240 240.574219v84.84375l83.789062 83.789062c5.667969 5.671875 13.199219 8.789063 21.210938 8.789063s15.542969-3.117188 21.210938-8.789063c11.6875-11.6875 11.6875-30.730469 0-42.421875zm0 0"/><path d="m135 0h-60c-19.53125 0-36.023438 12.578125-42.238281 30h144.476562c-6.214843-17.421875-22.707031-30-42.238281-30zm0 0"/><path d="m450 136h-210v60h210c16.539062 0 30-13.460938 30-30s-13.460938-30-30-30zm0 0"/></svg>