<svg id="Capa_1" enable-background="new 0 0 512 512" height="512" viewBox="0 0 512 512" width="512" xmlns="http://www.w3.org/2000/svg"><g><path d="m467 181c24.813 0 45-20.187 45-45s-20.187-45-45-45-45 20.187-45 45c0 5.148.88 10.091 2.479 14.701l-65.877 52.048c-8.269-4.303-17.653-6.749-27.602-6.749-2.042 0-4.086.11-6.127.33-9.682-22.423-29.916-38.876-53.873-43.796v-65.114c17.459-6.192 30-22.865 30-42.42 0-24.813-20.187-45-45-45s-45 20.187-45 45c0 19.555 12.541 36.228 30 42.42v65.115c-23.958 4.92-44.191 21.373-53.873 43.796-2.041-.22-4.085-.33-6.127-.33-9.949 0-19.333 2.446-27.602 6.749l-65.877-52.048c1.599-4.611 2.479-9.554 2.479-14.702 0-24.813-20.187-45-45-45s-45 20.187-45 45 20.187 45 45 45c8.742 0 16.903-2.514 23.816-6.844l62.008 48.991c-4.994 7.602-8.315 16.396-9.418 25.86-18.538 10.516-30.406 30.273-30.406 51.993 0 10.066 2.503 19.553 6.902 27.893l-23.45 13.127c-7.9-6.856-18.196-11.02-29.452-11.02-24.813 0-45 20.187-45 45s20.187 45 45 45 45-20.187 45-45c0-2.698-.252-5.337-.709-7.906l29.499-16.513c9.313 5.952 20.361 9.419 32.21 9.419h90v63.58c-17.459 6.192-30 22.865-30 42.42 0 24.813 20.187 45 45 45s45-20.187 45-45c0-19.555-12.541-36.228-30-42.42v-63.58h90c11.849 0 22.897-3.467 32.21-9.419l29.499 16.513c-.457 2.569-.709 5.208-.709 7.906 0 24.813 20.187 45 45 45s45-20.187 45-45-20.187-45-45-45c-11.256 0-21.552 4.164-29.452 11.02l-23.45-13.127c4.399-8.34 6.902-17.827 6.902-27.893 0-21.72-11.867-41.477-30.405-51.994-1.103-9.464-4.424-18.258-9.418-25.859l62.007-48.991c6.913 4.33 15.074 6.844 23.816 6.844zm-211 301c-8.271 0-15-6.729-15-15s6.729-15 15-15 15 6.729 15 15-6.729 15-15 15zm211-361c8.271 0 15 6.729 15 15s-6.729 15-15 15-15-6.729-15-15 6.729-15 15-15zm-211-91c8.271 0 15 6.729 15 15s-6.729 15-15 15-15-6.729-15-15 6.729-15 15-15zm-211 121c-8.271 0-15-6.729-15-15s6.729-15 15-15 15 6.729 15 15-6.729 15-15 15zm0 240c-8.271 0-15-6.729-15-15s6.729-15 15-15 15 6.729 15 15-6.729 15-15 15zm422-30c8.271 0 15 6.729 15 15s-6.729 15-15 15-15-6.729-15-15 6.729-15 15-15zm-76-60c0 16.542-13.458 30-30 30h-210c-16.542 0-30-13.458-30-30 0-12.635 8.119-23.953 20.204-28.163l10.714-3.732c-.73-11.362-.571-11.153-.914-13.597.265-16.316 13.618-29.508 29.996-29.508 8.294 0 13.195 3.461 27.395 8.549l3.509-17.469c4.2-20.906 22.744-36.08 44.096-36.08s39.896 15.174 44.097 36.08l3.509 17.469c14.057-5.036 19.066-8.549 27.394-8.549 16.378 0 29.731 13.192 29.996 29.507-.342 2.435-.179 2.154-.914 13.597l10.714 3.732c12.085 4.21 20.204 15.529 20.204 28.164z"/></g></svg>