<svg id="Layer_5" enable-background="new 0 0 64 64" height="512" viewBox="0 0 64 64" width="512" xmlns="http://www.w3.org/2000/svg"><g><path d="m34 5h-3v10h3c2.757 0 5-2.243 5-5s-2.243-5-5-5zm0 8h-1v-6h1c1.654 0 3 1.346 3 3s-1.346 3-3 3z"/><path d="m54 7h2c.552 0 1 .449 1 1h2c0-1.654-1.346-3-3-3h-2c-1.654 0-3 1.346-3 3s1.346 3 3 3h2c.552 0 1 .449 1 1s-.448 1-1 1h-2c-.552 0-1-.449-1-1h-2c0 1.654 1.346 3 3 3h2c1.654 0 3-1.346 3-3s-1.346-3-3-3h-2c-.552 0-1-.449-1-1s.448-1 1-1z"/><path d="m47 11.764-3.382-6.764h-2.618v10h2v-6.764l3.382 6.764h2.618v-10h-2z"/><path d="m60 1h-30c-1.654 0-3 1.346-3 3v5h-2.731l-.766 2.405c-3.465.632-6.798 2.015-9.709 4.027l-2.248-1.163-5.275 5.276 1.162 2.248c-2.013 2.911-3.396 6.245-4.026 9.709l-2.407.767v7.463l2.406.765c.631 3.465 2.014 6.798 4.026 9.709l-1.162 2.248 5.275 5.276 2.248-1.163c2.911 2.013 6.244 3.395 9.709 4.027l.767 2.406h7.463l.766-2.405c3.465-.632 6.798-2.015 9.709-4.027l2.248 1.163 5.275-5.276-1.162-2.248c2.013-2.911 3.396-6.245 4.026-9.709l2.406-.767v-7.463l-2.406-.765c-.631-3.465-2.014-6.798-4.026-9.709l1.162-2.248-.547-.546h10.817c1.654 0 3-1.346 3-3v-12c0-1.654-1.346-3-3-3zm-27.854 21.631c.246.747.473 1.534.672 2.369h-9.651c1.012-4.28 2.551-7.094 4.084-7.804.464 1.06 1.52 1.804 2.749 1.804h1v1.586c0 .865.461 1.619 1.146 2.045zm5.581-2.943c2.303 1.375 4.252 3.192 5.759 5.313h-8.617c-.17-.755-.356-1.481-.561-2.175.303-.121.583-.299.815-.532zm-26.454 7.312h9.471c-.437 2.542-.686 5.279-.734 8h-10.959c.151-2.88.924-5.597 2.222-8zm1.264-2c2.732-3.829 6.834-6.614 11.597-7.603-1.3 1.803-2.305 4.49-2.998 7.603zm9.481 10c.051-2.949.317-5.645.741-8h10.478c.445 2.454.697 5.17.747 8zm11.964 2c-.051 2.949-.317 5.645-.741 8h-10.483c-.424-2.355-.69-5.051-.741-8zm-13.973 0c.049 2.721.297 5.458.734 8h-9.471c-1.298-2.403-2.071-5.12-2.222-8zm1.127 10c.693 3.113 1.698 5.8 2.998 7.603-4.763-.989-8.865-3.774-11.597-7.603zm2.032 0h9.665c-1.177 4.978-3.067 8-4.832 8s-3.656-3.022-4.833-8zm11.696 0h8.599c-2.732 3.829-6.834 6.614-11.597 7.603 1.3-1.803 2.305-4.49 2.998-7.603zm9.863-2h-9.471c.437-2.542.686-5.279.734-8h10.959c-.151 2.88-.924 5.597-2.222 8zm-8.744-10c-.048-2.813-.294-5.521-.722-8h9.463c1.31 2.435 2.092 5.157 2.242 8zm11.299-15.074-1.055 2.04.364.5c2.145 2.94 3.572 6.385 4.13 9.96l.096.611 2.183.694v4.537l-2.183.694-.096.611c-.558 3.576-1.985 7.02-4.13 9.96l-.364.5 1.055 2.04-3.209 3.208-2.039-1.055-.499.364c-2.941 2.145-6.385 3.573-9.961 4.131l-.611.096-.694 2.183h-4.537l-.694-2.182-.611-.096c-3.576-.558-7.02-1.986-9.961-4.131l-.499-.364-2.039 1.055-3.209-3.208 1.055-2.04-.364-.5c-2.145-2.94-3.572-6.385-4.13-9.96l-.096-.611-2.184-.694v-4.537l2.183-.694.096-.611c.558-3.576 1.985-7.02 4.13-9.96l.364-.5-1.055-2.04 3.209-3.208 2.039 1.055.499-.364c2.941-2.145 6.385-3.573 9.961-4.131l.611-.096.694-2.183h1.269v4.051c-11.113.527-20 9.707-20 20.949 0 11.58 9.421 21 21 21s21-9.42 21-21c0-6.785-3.267-13.078-8.673-17h6.029zm13.718-3.926c0 .551-.448 1-1 1h-22.414l-3.88 3.879c-.235.237-.706.044-.706-.293v-3.586h-3c-.552 0-1-.449-1-1v-12c0-.551.448-1 1-1h30c.552 0 1 .449 1 1z"/><path d="m51 49h10v2h-10z"/><path d="m51 53h10v2h-10z"/><path d="m55 57h2v2h-2z"/><path d="m51 57h2v2h-2z"/><path d="m59 57h2v2h-2z"/><path d="m3 3h10v2h-10z"/><path d="m3 7h10v2h-10z"/><path d="m3 11h2v2h-2z"/><path d="m11 11h2v2h-2z"/><path d="m7 11h2v2h-2z"/></g></svg>