<?xml version="1.0" encoding="iso-8859-1"?>
<!-- Generator: Adobe Illustrator 19.0.0, SVG Export Plug-In . SVG Version: 6.00 Build 0)  -->
<svg version="1.1" id="Capa_1" xmlns="http://www.w3.org/2000/svg" xmlns:xlink="http://www.w3.org/1999/xlink" x="0px" y="0px"
	 viewBox="0 0 512.003 512.003" style="enable-background:new 0 0 512.003 512.003;" xml:space="preserve">
<path style="fill:#87CED9;" d="M290.123,42.834c0.094-18.844-15.116-34.19-33.959-34.283c-18.844-0.094-34.19,15.116-34.283,33.959
	c-0.06,12.25,6.449,23.586,17.061,29.711v431.252h34.121V72.221C283.589,66.181,290.097,54.981,290.123,42.834z"/>
<g>
	<polygon style="fill:#4398D1;" points="238.941,179.319 34.212,179.319 8.621,145.198 34.212,111.076 238.941,111.076 	"/>
	<polygon style="fill:#4398D1;" points="273.062,247.562 477.79,247.562 503.381,213.441 477.79,179.319 273.062,179.319 	"/>
	<polygon style="fill:#4398D1;" points="238.941,315.805 68.334,315.805 42.743,281.683 68.334,247.562 238.941,247.562 	"/>
	<polygon style="fill:#4398D1;" points="273.062,392.578 443.669,392.578 469.26,358.456 443.669,324.335 273.062,324.335 	"/>
</g>
<g>
	<rect x="221.871" y="111.068" style="fill:#3E8CC7;" width="17.061" height="68.243"/>
	<rect x="221.871" y="247.553" style="fill:#3E8CC7;" width="17.061" height="68.243"/>
	<rect x="273.053" y="179.311" style="fill:#3E8CC7;" width="17.061" height="68.243"/>
	<rect x="273.053" y="324.327" style="fill:#3E8CC7;" width="17.061" height="68.243"/>
</g>
<path d="M27.388,105.958L1.797,140.08c-2.278,3.037-2.278,7.2,0,10.236l25.591,34.121c1.612,2.15,4.137,3.412,6.824,3.412H230.41
	v51.182H68.334c-2.687,0-5.212,1.262-6.824,3.412l-25.591,34.121c-2.278,3.037-2.278,7.2,0,10.236l25.591,34.121
	c1.612,2.15,4.137,3.412,6.824,3.412H230.41v179.137c0,4.709,3.822,8.53,8.53,8.53h34.121c4.709,0,8.53-3.822,8.53-8.53V401.108
	h162.077c2.687,0,5.212-1.262,6.824-3.412l25.591-34.121c2.278-3.037,2.278-7.2,0-10.236l-25.591-34.121
	c-1.612-2.15-4.137-3.412-6.824-3.412H281.592v-59.712H477.79c2.687,0,5.212-1.262,6.824-3.412l25.591-34.121
	c2.278-3.037,2.278-7.2,0-10.236l-25.591-34.121c-1.612-2.15-4.137-3.412-6.824-3.412H281.592V76.776
	c18.844-14.135,22.665-40.869,8.53-59.712C275.988-1.78,249.254-5.602,230.41,8.533s-22.665,40.869-8.53,59.712
	c2.423,3.233,5.297,6.108,8.53,8.53v25.77H34.212C31.525,102.546,29,103.808,27.388,105.958z M72.599,307.274l-19.193-25.591
	l19.193-25.591H230.41v51.182H72.599z M439.404,332.865l19.193,25.591l-19.193,25.591H281.592v-51.182H439.404z M473.525,187.849
	l19.193,25.591l-19.193,25.591H281.592v-51.182H473.525z M256.001,17.243c14.135,0,25.591,11.456,25.591,25.591
	c0.009,9.102-4.879,17.513-12.796,22.017c-2.636,1.518-4.257,4.325-4.265,7.37v422.721h-17.061V72.221
	c-0.009-3.045-1.629-5.852-4.265-7.37c-7.916-4.504-12.804-12.915-12.796-22.017C230.41,28.699,241.867,17.243,256.001,17.243z
	 M230.41,119.607v51.182H38.477l-19.193-25.591l19.193-25.591H230.41z"/>
<g>
</g>
<g>
</g>
<g>
</g>
<g>
</g>
<g>
</g>
<g>
</g>
<g>
</g>
<g>
</g>
<g>
</g>
<g>
</g>
<g>
</g>
<g>
</g>
<g>
</g>
<g>
</g>
<g>
</g>
</svg>
