<?xml version="1.0" standalone="no"?>
<!DOCTYPE svg PUBLIC "-//W3C//DTD SVG 20010904//EN"
 "http://www.w3.org/TR/2001/REC-SVG-20010904/DTD/svg10.dtd">
<svg version="1.0" xmlns="http://www.w3.org/2000/svg"
 width="1280.000000pt" height="720.000000pt" viewBox="0 0 1280.000000 720.000000"
 preserveAspectRatio="xMidYMid meet">

<g transform="translate(0.000000,720.000000) scale(0.100000,-0.100000)"
fill="#000000" stroke="none">
<path d="M2 3598 l3 -3603 2 3597 3 3598 6398 3 6397 2 -6402 3 -6403 2 2
-3602z"/>
<path d="M6200 5251 l0 -271 30 0 c23 0 30 4 30 20 0 18 2 18 36 -5 73 -50
165 -23 207 59 29 55 29 175 0 231 -39 75 -127 98 -196 51 l-36 -25 -3 102 -3
102 -32 3 -33 3 0 -270z m215 26 c53 -45 53 -179 0 -224 -34 -30 -62 -29 -108
2 l-37 26 0 78 c0 78 1 79 35 110 42 37 74 39 110 8z"/>
<path d="M3210 5489 c-88 -35 -113 -147 -48 -217 13 -13 50 -38 83 -54 33 -17
70 -39 83 -51 23 -22 29 -65 12 -96 -23 -43 -112 -51 -181 -15 -35 18 -49 12
-49 -22 0 -60 181 -87 247 -38 48 36 66 70 67 123 1 67 -22 96 -120 149 -90
48 -104 63 -104 109 0 26 6 36 30 48 39 20 68 19 114 -6 43 -23 60 -16 54 22
-6 47 -119 75 -188 48z"/>
<path d="M4414 5486 c-3 -8 -4 -25 -2 -38 2 -18 10 -24 35 -26 28 -3 33 1 39
22 3 14 4 33 0 41 -7 19 -65 20 -72 1z"/>
<path d="M8292 5488 c-28 -28 -3 -72 39 -66 30 4 47 33 33 56 -14 21 -55 27
-72 10z"/>
<path d="M5080 5483 c0 -4 32 -118 70 -253 39 -135 70 -246 70 -247 0 -2 20
-3 45 -3 43 0 45 1 54 38 5 20 26 100 46 177 20 77 39 147 42 155 3 8 22 -47
44 -124 75 -272 64 -246 109 -246 27 0 42 5 48 18 9 15 142 474 142 487 0 3
-15 5 -34 5 -24 0 -36 -5 -40 -17 -3 -10 -26 -99 -52 -198 -26 -99 -50 -186
-53 -193 -6 -10 -33 81 -113 376 -9 31 -12 33 -45 30 l-36 -3 -53 -203 c-29
-112 -54 -205 -56 -207 -2 -2 -29 89 -59 203 l-55 207 -37 3 c-20 2 -37 0 -37
-5z"/>
<path d="M6810 5235 l0 -255 35 0 35 0 0 120 0 120 115 0 115 0 0 -121 0 -120
33 3 32 3 0 250 0 250 -32 3 -33 3 0 -105 0 -106 -115 0 -115 0 0 105 0 105
-35 0 -35 0 0 -255z"/>
<path d="M3530 5401 c0 -50 -1 -51 -30 -51 -25 0 -30 -4 -30 -25 0 -21 5 -25
30 -25 l30 0 0 -130 c0 -73 5 -140 11 -153 29 -63 159 -63 159 -1 0 25 -2 26
-36 20 -59 -12 -64 0 -64 140 l0 123 48 3 c39 3 47 6 47 23 0 17 -8 20 -47 23
l-47 3 -3 47 c-3 45 -4 47 -35 50 l-33 3 0 -50z"/>
<path d="M4160 5401 c0 -50 -1 -51 -30 -51 -25 0 -30 -4 -30 -25 0 -21 5 -25
29 -25 l29 0 4 -141 c3 -140 3 -141 31 -165 20 -17 40 -24 71 -24 47 0 66 13
66 47 0 22 -3 23 -33 18 -58 -11 -67 8 -67 146 l0 119 50 0 c47 0 50 2 50 25
0 23 -3 25 -49 25 l-50 0 -3 48 c-3 45 -4 47 -35 50 l-33 3 0 -50z"/>
<path d="M8040 5401 c0 -50 -1 -51 -30 -51 -25 0 -30 -4 -30 -25 0 -21 5 -25
30 -25 l30 0 0 -136 0 -136 29 -29 c24 -23 38 -29 73 -29 49 0 68 13 68 47 0
21 -3 23 -39 17 -54 -9 -61 9 -61 150 l0 116 50 0 c47 0 50 2 50 25 0 23 -3
25 -49 25 l-50 0 -3 48 c-3 45 -4 47 -35 50 l-33 3 0 -50z"/>
<path d="M3808 5344 c-38 -16 -58 -48 -41 -65 6 -6 28 -1 58 12 83 37 144 12
145 -58 l0 -33 -55 0 c-105 0 -165 -43 -165 -119 1 -99 106 -146 194 -86 34
23 36 23 36 5 0 -16 7 -20 30 -20 l30 0 0 140 c0 159 -11 199 -59 224 -38 20
-125 20 -173 0z m162 -233 c0 -32 -6 -44 -31 -65 -52 -44 -119 -25 -119 33 0
49 32 69 108 70 l42 1 0 -39z"/>
<path d="M4664 5346 c-103 -47 -126 -239 -40 -334 30 -32 39 -36 92 -39 78 -5
128 19 132 66 4 37 3 37 -48 11 -54 -28 -86 -25 -120 8 -53 53 -49 178 7 221
32 26 69 27 111 1 44 -27 52 -25 52 9 0 20 -8 34 -27 47 -36 23 -119 28 -159
10z"/>
<path d="M5875 5346 c-62 -27 -95 -93 -95 -188 1 -90 25 -139 85 -168 82 -40
225 -14 225 41 0 16 -5 20 -17 16 -104 -30 -112 -31 -152 -18 -44 13 -71 49
-71 95 l0 25 123 3 122 3 3 50 c6 116 -112 190 -223 141z m109 -46 c26 -10 39
-28 50 -72 l6 -28 -95 0 c-104 0 -111 5 -81 59 24 43 71 60 120 41z"/>
<path d="M7375 5346 c-99 -44 -135 -218 -65 -316 39 -55 140 -77 213 -46 123
51 144 268 34 349 -34 26 -138 34 -182 13z m145 -71 c45 -40 51 -152 13 -204
-39 -52 -127 -52 -165 0 -24 31 -28 120 -9 167 8 18 26 39 40 48 32 18 96 12
121 -11z"/>
<path d="M7752 5340 c-54 -33 -68 -97 -31 -144 12 -15 49 -39 83 -55 68 -30
81 -47 66 -86 -13 -33 -68 -43 -122 -22 -45 18 -58 15 -58 -14 0 -42 129 -65
190 -34 41 21 60 53 60 101 0 49 -16 66 -103 110 -52 25 -63 35 -65 59 -6 51
48 71 110 39 34 -18 54 -8 44 23 -14 45 -117 58 -174 23z"/>
<path d="M8610 5353 c-8 -3 -26 -15 -40 -25 -24 -19 -24 -19 -32 1 -5 14 -16
21 -33 21 l-25 0 0 -185 0 -185 30 0 30 0 0 123 c0 134 7 154 60 182 38 20 53
19 81 -4 23 -18 24 -27 29 -158 l5 -138 33 -3 32 -3 0 141 c0 159 -10 199 -59
224 -30 16 -82 20 -111 9z"/>
<path d="M8942 5344 c-18 -9 -40 -30 -48 -45 -16 -33 -18 -92 -4 -120 8 -14 7
-27 -5 -48 -19 -37 -19 -71 -1 -96 12 -17 12 -22 -5 -44 -28 -35 -25 -96 6
-125 44 -41 160 -49 232 -17 99 45 96 173 -5 201 -20 5 -65 10 -98 10 -67 0
-90 14 -79 50 5 16 10 18 25 10 47 -25 143 -2 174 41 19 27 22 109 4 127 -9 9
-5 12 20 12 27 0 32 4 32 25 0 23 -4 25 -42 25 -24 0 -72 3 -108 6 -50 4 -73
1 -98 -12z m123 -59 c14 -13 25 -36 25 -50 0 -14 -11 -37 -25 -50 -13 -14 -36
-25 -50 -25 -14 0 -37 11 -50 25 -14 13 -25 36 -25 50 0 14 11 37 25 50 13 14
36 25 50 25 14 0 37 -11 50 -25z m42 -297 c19 -15 16 -52 -6 -79 -16 -20 -28
-24 -79 -24 -93 0 -126 41 -80 100 21 26 24 27 87 21 36 -4 71 -12 78 -18z"/>
<path d="M4414 5337 c-2 -7 -3 -89 -2 -182 l3 -170 33 -3 32 -3 0 185 0 186
-30 0 c-17 0 -33 -6 -36 -13z"/>
<path d="M8294 5337 c-2 -7 -3 -89 -2 -182 l3 -170 33 -3 32 -3 0 185 0 186
-30 0 c-17 0 -33 -6 -36 -13z"/>
<path d="M6313 4052 l-193 -97 0 -87 c0 -103 10 -99 -135 -59 l-100 27 -102
-50 -103 -51 0 -207 c0 -115 1 -209 3 -209 1 -1 85 -7 187 -13 136 -9 213 -9
290 -2 99 10 105 12 108 34 4 24 4 24 100 15 122 -10 193 -10 310 0 89 8 92 8
92 -12 0 -24 10 -27 140 -39 59 -5 162 -4 270 2 l175 11 3 210 2 210 -102 51
-103 51 -105 -28 c-58 -16 -111 -29 -117 -29 -10 0 -13 24 -13 88 l0 87 -195
98 c-107 53 -201 97 -208 96 -6 0 -99 -44 -204 -97z"/>
<path d="M2860 3911 l-115 -59 -5 -443 -5 -444 -47 -3 -48 -3 0 -103 0 -103
96 -7 c53 -4 101 -9 105 -12 5 -3 9 -83 9 -179 l0 -174 -37 -10 c-21 -5 -68
-18 -105 -27 l-68 -18 0 -98 0 -98 170 -85 c93 -47 172 -85 175 -85 3 0 5 452
5 1005 0 553 -3 1005 -7 1004 -5 0 -60 -26 -123 -58z"/>
<path d="M10010 3913 c-507 -14 -828 -149 -608 -257 150 -73 435 -111 787
-103 254 5 396 22 541 64 199 57 235 129 96 194 -149 70 -480 111 -816 102z"/>
<path d="M3352 3610 c-117 -31 -217 -61 -223 -67 -6 -6 -8 -78 -7 -179 l3
-169 73 -8 c53 -7 129 -3 289 12 119 12 218 23 220 25 2 2 -24 9 -57 15 l-60
12 0 210 c0 161 -3 209 -12 208 -7 -1 -109 -27 -226 -59z"/>
<path d="M9330 3547 c0 -47 254 -1120 260 -1102 5 15 7 15 19 1 19 -23 110
-54 214 -73 128 -23 466 -23 594 0 104 19 195 50 214 73 12 14 14 14 19 0 6
-19 261 1063 260 1106 l0 26 -30 -28 c-136 -127 -870 -178 -1285 -89 -101 22
-205 61 -235 89 l-30 28 0 -31z"/>
<path d="M5680 2762 l0 -207 103 -51 102 -50 100 27 c145 40 135 44 135 -59
l0 -87 200 -100 200 -100 200 100 200 100 0 87 c0 64 3 88 13 88 6 0 59 -13
117 -29 l105 -28 103 51 102 51 0 207 0 208 -22 -4 c-106 -23 -175 -25 -354
-11 -104 8 -195 15 -202 15 -8 0 -12 -9 -10 -22 3 -20 10 -24 66 -29 34 -3 64
-8 67 -11 3 -2 -80 -17 -184 -32 l-190 -28 -188 27 c-187 28 -248 45 -162 45
64 0 89 9 89 32 0 16 -6 18 -47 14 -213 -24 -321 -26 -420 -11 -57 8 -107 15
-113 15 -6 0 -10 -75 -10 -208z"/>
<path d="M2260 2516 l0 -196 60 -30 c33 -16 62 -30 65 -30 3 0 5 94 5 209 l0
210 -57 11 c-32 7 -61 14 -65 17 -5 2 -8 -84 -8 -191z"/>
</g>
</svg>
