<svg height="512pt" viewBox="0 0 512 512" width="512pt" xmlns="http://www.w3.org/2000/svg"><path d="m512 150v-150h-210v60h-92v-60h-210v150h60v15c0 13.785156-11.214844 25-25 25v30h55v72h-90v150h60v15c0 13.785156-11.214844 25-25 25v30h140v-30c-13.785156 0-25-11.214844-25-25v-15h60v-150h-90v-72h55v-30c-13.785156 0-25-11.214844-25-25v-15h60v-60h92v60h60v15c0 13.785156-11.214844 25-25 25v30h140v-30c-13.785156 0-25-11.214844-25-25v-15zm-428.015625 332c3.84375-7.503906 6.015625-16.003906 6.015625-25v-15h30v15c0 8.996094 2.171875 17.496094 6.015625 25zm96.015625-160v90h-150v-90zm-96.015625-132c3.84375-7.503906 6.015625-16.003906 6.015625-25v-15h30v15c0 8.996094 2.171875 17.496094 6.015625 25zm96.015625-70h-150v-90h150zm205.984375 70c3.84375-7.503906 6.015625-16.003906 6.015625-25v-15h30v15c0 8.996094 2.171875 17.496094 6.015625 25zm-53.984375-70v-90h150v90zm0 0"/><path d="m271 445c0 8.285156-6.714844 15-15 15s-15-6.714844-15-15 6.714844-15 15-15 15 6.714844 15 15zm0 0"/><path d="m331 445c0 8.285156-6.714844 15-15 15s-15-6.714844-15-15 6.714844-15 15-15 15 6.714844 15 15zm0 0"/><path d="m451 445c0 8.285156-6.714844 15-15 15s-15-6.714844-15-15 6.714844-15 15-15 15 6.714844 15 15zm0 0"/><path d="m451 325c0 8.285156-6.714844 15-15 15s-15-6.714844-15-15 6.714844-15 15-15 15 6.714844 15 15zm0 0"/><path d="m451 265c0 8.285156-6.714844 15-15 15s-15-6.714844-15-15 6.714844-15 15-15 15 6.714844 15 15zm0 0"/><path d="m391 445c0 8.285156-6.714844 15-15 15s-15-6.714844-15-15 6.714844-15 15-15 15 6.714844 15 15zm0 0"/><path d="m451 385c0 8.285156-6.714844 15-15 15s-15-6.714844-15-15 6.714844-15 15-15 15 6.714844 15 15zm0 0"/></svg>