<svg id="Layer_5" enable-background="new 0 0 64 64" height="512" viewBox="0 0 64 64" width="512" xmlns="http://www.w3.org/2000/svg"><g><path d="m20 29c-1.654 0-3 1.346-3 3 0 1.302.839 2.402 2 2.816v4.184h2v-4.184c1.161-.414 2-1.514 2-2.816 0-1.654-1.346-3-3-3zm0 4c-.551 0-1-.448-1-1s.449-1 1-1 1 .448 1 1-.449 1-1 1z"/><path d="m53 41.051v-5.051c0-1.654-1.346-3-3-3h-10c-.551 0-1-.448-1-1v-3h6c3.309 0 6-2.691 6-6 0-2.968-2.166-5.439-5-5.917 0-.027 0-.056 0-.083 0-5.514-4.486-10-10-10-1.261 0-2.483.232-3.645.691-2.279-4.094-6.634-6.691-11.355-6.691-6.852 0-12.482 5.328-12.966 12.058-3.958.478-7.034 3.858-7.034 7.942 0 4.411 3.589 8 8 8h2v11c0 1.654 1.346 3 3 3h1.613l-.388 1.163-4.965 1.242c-1.836.458-3.472 1.544-4.607 3.059-1.066 1.42-1.653 3.181-1.653 4.957v9.579h32v-9.579c0-.141-.027-.28-.034-.421h5.085c.507 5.598 5.221 10 10.949 10 6.065 0 11-4.935 11-11 0-5.728-4.402-10.442-10-10.949zm-3.177 14.949c-.263-.901-.46-1.902-.536-3h5.427c-.077 1.096-.276 2.098-.542 3zm3.598 2c-.487 1.053-1.013 1.871-1.423 2.429-.412-.557-.939-1.375-1.426-2.429zm-10.362-5h4.227c.066 1.082.234 2.082.466 3h-3.802c-.461-.923-.772-1.932-.891-3zm7.521-7c.487-1.052 1.013-1.87 1.423-2.429.412.557.939 1.375 1.425 2.429zm3.597 2c.263.901.46 1.902.536 3h-5.427c.077-1.096.276-2.098.542-3zm-5.783-2h-3.084c1.17-1.303 2.71-2.26 4.456-2.708-.456.722-.944 1.628-1.372 2.708zm-4.444 2h3.803c-.232.918-.401 1.918-.466 3h-4.227c.118-1.068.429-2.077.89-3zm12.764 5h4.227c-.119 1.068-.43 2.077-.891 3h-3.803c.233-.918.401-1.918.467-3zm0-2c-.066-1.082-.234-2.082-.466-3h3.803c.461.923.772 1.932.891 3zm1.975-5h-3.084c-.428-1.08-.916-1.986-1.373-2.708 1.747.448 3.287 1.405 4.457 2.708zm-55.689-25c0-3.309 2.691-6 6-6h1v-1c0-6.065 4.935-11 11-11 4.275 0 8.196 2.518 9.988 6.414l.437.949.929-.478c1.143-.587 2.37-.885 3.646-.885 4.411 0 8 3.589 8 8 0 .304-.021.602-.054.896l-.123 1.11h1.117l.121-.006c2.177.033 3.939 1.814 3.939 4 0 2.206-1.794 4-4 4h-16.184c-.302-.847-.969-1.514-1.816-1.816v-5.184c0-3.859-3.14-7-7-7s-7 3.141-7 7v5.184c-.847.302-1.514.969-1.816 1.816h-2.184c-3.309 0-6-2.691-6-6zm22 4h-10v-5c0-2.757 2.243-5 5-5s5 2.243 5 5zm-12 15v-12c0-.552.449-1 1-1h12c.551 0 1 .448 1 1v12c0 .552-.449 1-1 1h-12c-.551 0-1-.448-1-1zm3.938 8.21-.612 3.061-2.129-4.79 1.362-.341zm1.882.79h2.361l1.087 5.436-2.268 5.102-2.268-5.102zm4.854 2.272-.612-3.061 1.379-2.069 1.362.341zm-1.395-8.272.618 1.852-1.432 2.148h-2.93l-1.432-2.148.618-1.852zm-16.279 10.421c0-1.347.445-2.681 1.253-3.758.86-1.147 2.1-1.971 3.492-2.318l1.483-.371 6.233 14.026h-6.461v-5.343c0-1.336-.52-2.592-1.464-3.536l-.829-.828-1.414 1.414.829.828c.566.567.878 1.32.878 2.122v5.343h-4zm28 7.579h-4v-5.343c0-.802.312-1.556.878-2.122l.829-.828-1.414-1.414-.829.828c-.944.944-1.464 2.2-1.464 3.536v5.343h-6.461l6.234-14.026 1.483.371c1.391.348 2.631 1.171 3.492 2.319.807 1.076 1.252 2.41 1.252 3.757zm.348-12.536c-1.135-1.515-2.771-2.601-4.607-3.059l-4.966-1.242-.388-1.163h1.613c1.654 0 3-1.346 3-3v-11h8v3c0 1.654 1.346 3 3 3h10c.551 0 1 .448 1 1v5.051c-5.268.478-9.472 4.681-9.949 9.949h-5.43c-.28-.909-.701-1.773-1.273-2.536zm10.963 9.536h3.084c.428 1.08.916 1.986 1.373 2.708-1.747-.448-3.287-1.405-4.457-2.708zm8.922 2.708c.457-.722.945-1.628 1.373-2.708h3.084c-1.171 1.303-2.711 2.26-4.457 2.708z"/><path d="m55 17h2c0-5.514-4.486-10-10-10v2c4.411 0 8 3.589 8 8z"/><path d="m59 17h2c0-7.72-6.28-14-14-14v2c6.617 0 12 5.383 12 12z"/><path d="m21 7c2.492 0 4.815 1.342 6.064 3.501l1.731-1.002c-1.605-2.775-4.592-4.499-7.795-4.499-.76 0-1.516.096-2.249.283l.497 1.938c.571-.147 1.16-.221 1.752-.221z"/><path d="m17.5 7.936-1-1.731c-.845.488-1.602 1.107-2.249 1.841l1.499 1.324c.504-.571 1.093-1.054 1.75-1.434z"/><path d="m40 17h2c0-3.309-2.691-6-6-6v2c2.206 0 4 1.794 4 4z"/></g></svg>