<?xml version="1.0" standalone="no"?>
<!DOCTYPE svg PUBLIC "-//W3C//DTD SVG 20010904//EN"
 "http://www.w3.org/TR/2001/REC-SVG-20010904/DTD/svg10.dtd">
<svg version="1.0" xmlns="http://www.w3.org/2000/svg"
 width="4321.000000pt" height="2419.000000pt" viewBox="0 0 4321.000000 2419.000000"
 preserveAspectRatio="xMidYMid meet">
<metadata>
Created by potrace 1.16, written by Peter Selinger 2001-2019
</metadata>
<g transform="translate(0.000000,2419.000000) scale(0.100000,-0.100000)"
fill="#000000" stroke="none">
<path d="M12721 23551 c-7 -13 -6 -49 5 -117 35 -225 43 -297 55 -459 44 -635
-103 -1338 -409 -1950 -218 -439 -493 -815 -862 -1185 -193 -193 -302 -287
-883 -762 -1229 -1004 -1788 -1489 -2263 -1963 -447 -446 -743 -821 -919
-1166 -219 -428 -277 -805 -178 -1164 65 -239 274 -649 514 -1006 340 -508
819 -1106 1389 -1734 388 -428 1070 -1134 1070 -1108 0 22 -96 172 -196 308
-151 205 -313 449 -574 865 -328 524 -636 1115 -790 1520 -209 548 -283 957
-226 1255 65 339 291 786 611 1210 411 543 927 1071 2680 2736 359 341 494
487 663 710 743 990 954 2110 642 3414 -60 250 -101 352 -206 506 -76 112
-101 131 -123 90z"/>
<path d="M15385 18863 c-69 -16 -366 -107 -570 -175 -1118 -372 -2164 -881
-2875 -1398 -645 -468 -1066 -928 -1315 -1435 -176 -357 -241 -614 -252 -986
-14 -460 102 -914 349 -1374 79 -145 179 -296 460 -692 369 -522 424 -606 521
-799 101 -202 140 -351 140 -539 0 -198 -40 -347 -149 -561 -115 -223 -209
-374 -401 -640 -67 -95 -123 -175 -123 -178 0 -10 40 -7 63 5 12 7 74 46 137
87 559 364 1046 813 1302 1200 286 434 360 802 248 1236 -90 349 -263 704
-583 1195 -284 436 -341 527 -409 649 -155 276 -217 451 -237 666 -21 213 25
416 150 673 294 602 989 1276 2179 2115 273 192 882 589 1330 868 47 29 86 54
88 55 1 1 0 10 -4 19 -6 16 -13 17 -49 9z"/>
<path d="M22635 14903 c-22 -3 -44 -9 -50 -14 -7 -7 -12 -1284 -15 -3772 -5
-3450 -7 -3771 -23 -3876 -38 -265 -84 -454 -155 -651 -117 -325 -258 -555
-472 -770 -170 -171 -337 -285 -542 -371 -43 -17 -78 -35 -78 -39 0 -6 42 -56
418 -498 103 -122 163 -184 181 -189 56 -14 393 122 596 241 688 402 1152
1138 1310 2078 57 345 55 170 55 4158 0 2016 -4 3670 -8 3677 -19 30 -69 33
-620 31 -306 -1 -575 -3 -597 -5z"/>
<path d="M27030 12904 c-19 -2 -91 -9 -160 -14 -476 -41 -1108 -188 -1550
-361 -167 -66 -241 -107 -259 -143 -13 -27 -9 -46 47 -250 34 -122 73 -268 87
-326 15 -58 31 -111 37 -117 19 -23 62 -14 275 56 598 198 1093 282 1568 267
308 -9 464 -39 635 -124 81 -39 109 -60 190 -142 77 -77 104 -112 142 -185
119 -232 172 -520 166 -905 -3 -181 -5 -203 -21 -215 -12 -8 -65 -15 -145 -19
-611 -30 -1093 -70 -1382 -117 -318 -51 -667 -168 -933 -313 -462 -252 -768
-591 -903 -1002 -55 -168 -75 -302 -81 -524 -6 -216 8 -361 52 -547 114 -482
329 -783 697 -978 237 -125 563 -202 988 -235 162 -13 282 -4 460 31 473 94
911 303 1275 608 66 55 123 101 127 101 4 0 11 -8 17 -17 8 -17 73 -339 86
-433 13 -87 24 -116 50 -128 32 -15 872 -17 895 -2 13 8 15 267 15 2232 0
2099 -1 2229 -18 2333 -66 403 -207 696 -452 940 -275 275 -656 447 -1140 515
-76 11 -692 22 -765 14z m1170 -3290 c15 -39 12 -1299 -3 -1344 -9 -26 -40
-57 -122 -123 -369 -296 -739 -468 -1095 -509 -216 -24 -465 36 -640 155 -62
43 -155 132 -200 192 -183 247 -223 666 -94 994 55 137 173 284 300 372 114
78 336 164 543 208 197 43 660 77 1069 80 l232 1 10 -26z"/>
<path d="M38115 12903 c-216 -11 -607 -68 -875 -128 -347 -77 -803 -225 -981
-316 -100 -52 -104 -55 -107 -89 -3 -42 170 -692 186 -698 6 -2 102 27 214 63
490 160 858 241 1248 276 164 14 524 6 660 -15 333 -53 554 -192 673 -424 121
-236 167 -476 167 -879 0 -230 0 -233 -22 -247 -16 -10 -67 -16 -158 -21 -888
-41 -1383 -98 -1722 -195 -440 -127 -875 -376 -1125 -645 -236 -253 -354 -497
-415 -855 -28 -166 -30 -462 -4 -625 35 -224 104 -441 196 -625 127 -253 301
-421 564 -546 351 -167 665 -232 1072 -221 228 5 339 20 549 71 381 93 783
308 1112 594 46 40 89 72 96 72 9 0 28 -79 64 -276 36 -192 57 -282 69 -295
16 -18 37 -19 459 -19 363 0 445 2 454 14 8 10 11 597 8 2277 l-2 2264 -27
120 c-66 296 -187 554 -347 745 -294 351 -746 562 -1330 620 -92 9 -521 11
-676 3z m1175 -3282 c14 -27 14 -1302 0 -1353 -8 -27 -27 -50 -78 -90 -220
-177 -426 -308 -622 -394 -264 -116 -528 -168 -725 -144 -383 47 -653 265
-762 617 -26 84 -27 98 -27 293 0 174 3 217 21 285 75 293 241 487 517 607
187 81 415 136 657 158 246 22 549 38 776 39 220 1 233 0 243 -18z"/>
<path d="M41509 12781 c-17 -13 -39 -54 -63 -118 -21 -54 -47 -113 -58 -132
l-21 -33 -13 24 c-7 13 -31 71 -54 129 -23 57 -49 112 -57 122 -19 20 -112 24
-131 5 -13 -13 -17 -424 -4 -444 11 -18 50 -26 70 -15 16 9 21 26 26 110 4 54
13 107 20 116 10 15 18 1 56 -95 48 -122 69 -147 112 -131 19 7 33 29 57 88
39 94 66 146 80 151 7 2 11 -27 12 -85 2 -131 7 -147 48 -151 20 -2 37 2 42
10 5 7 9 108 9 224 0 234 1 229 -66 239 -31 5 -45 2 -65 -14z"/>
<path d="M30675 12780 l-530 -5 -3 -26 c-3 -21 1796 -5806 1828 -5876 l10 -23
719 0 c486 0 729 3 748 11 49 18 73 51 144 192 516 1027 1052 2696 1508 4697
87 384 211 976 211 1012 0 17 -33 18 -629 18 -523 0 -630 -2 -640 -14 -6 -7
-20 -101 -31 -207 -97 -967 -428 -2301 -977 -3942 -130 -386 -170 -494 -179
-485 -7 7 -37 117 -68 243 -140 569 -420 1532 -785 2698 -317 1009 -521 1641
-540 1667 -23 33 -86 49 -181 47 -41 -1 -313 -4 -605 -7z"/>
<path d="M40652 12778 c-16 -16 -15 -43 1 -56 7 -6 32 -12 57 -14 65 -4 70
-20 70 -216 l0 -162 25 -10 c35 -13 71 3 79 36 4 14 7 79 6 143 -2 174 -1 178
16 195 9 10 33 16 59 16 52 0 74 25 55 60 -10 19 -21 20 -183 20 -121 0 -177
-4 -185 -12z"/>
<path d="M16810 11039 c-251 -22 -506 -82 -671 -158 -94 -44 -282 -172 -269
-184 3 -2 70 6 150 19 359 58 761 37 1080 -56 126 -37 320 -131 411 -199 82
-62 202 -188 253 -264 157 -239 245 -584 217 -854 -32 -307 -144 -594 -353
-906 -135 -203 -260 -351 -491 -585 -394 -399 -863 -768 -1417 -1117 -317
-200 -390 -247 -397 -257 -25 -42 475 107 902 267 595 224 1154 522 1580 843
415 313 768 708 943 1057 143 283 191 498 179 805 -9 237 -52 402 -158 610
-128 250 -329 463 -615 650 -397 260 -852 371 -1344 329z"/>
<path d="M7190 10803 c-664 -68 -1264 -188 -1916 -383 -509 -153 -910 -308
-1239 -479 -180 -93 -258 -143 -346 -219 -288 -249 -132 -416 547 -586 723
-181 2715 -345 4194 -346 713 0 1694 55 2655 150 690 68 1746 195 2375 286
524 75 780 117 818 134 75 34 931 564 932 578 0 7 -6 15 -13 18 -7 2 -100 -9
-207 -26 -1129 -178 -1828 -267 -2925 -375 -675 -66 -1572 -134 -2240 -170
-580 -32 -1826 -29 -2552 5 -773 37 -1374 102 -1668 181 -199 54 -322 128
-341 206 -15 59 48 160 154 245 95 76 144 106 332 197 338 163 722 296 1400
486 151 43 280 80 285 84 24 14 -146 24 -245 14z"/>
<path d="M6499 8090 c-349 -73 -660 -220 -851 -402 -148 -142 -239 -349 -223
-504 16 -154 113 -266 325 -373 277 -141 608 -233 1165 -326 792 -131 1871
-200 3140 -200 589 0 730 5 1180 46 606 54 1234 158 1900 315 502 118 1185
318 1185 346 0 3 -37 18 -82 33 -196 62 -431 199 -655 381 -189 155 -203 158
-508 105 -1248 -216 -2744 -345 -4167 -358 -972 -9 -1512 26 -1957 127 -161
36 -234 60 -346 115 -284 140 -325 321 -128 565 34 41 75 88 92 104 30 29 39
47 24 45 -5 0 -47 -9 -94 -19z"/>
<path d="M7021 5549 c-88 -15 -256 -75 -389 -140 -447 -219 -612 -491 -470
-779 39 -79 161 -205 265 -274 454 -298 1316 -505 2458 -590 471 -36 607 -41
1085 -41 606 1 865 17 1360 86 603 85 1281 236 1988 443 461 136 666 207 646
225 -5 5 -67 33 -139 62 -242 99 -492 230 -872 456 -194 116 -247 142 -295
143 -15 0 -78 -13 -140 -29 -793 -204 -2349 -314 -3823 -271 -829 24 -1031 43
-1305 121 -132 38 -230 86 -299 146 -116 101 -123 218 -22 378 10 17 22 40 26
53 7 25 8 24 -74 11z"/>
<path d="M4630 3834 c-507 -51 -1082 -162 -1535 -295 -529 -156 -816 -285
-1088 -486 -310 -231 -407 -539 -226 -722 334 -339 1484 -592 3339 -735 2029
-157 4516 -166 6865 -26 1923 115 3297 337 4410 711 371 125 708 276 980 440
205 123 370 264 451 384 87 130 56 266 -95 416 -72 71 -166 137 -178 125 -3
-3 6 -32 20 -63 122 -276 51 -416 -303 -601 -137 -72 -244 -115 -445 -177
-586 -182 -1591 -351 -2680 -450 -93 -8 -213 -20 -265 -25 -52 -6 -264 -23
-470 -40 -1432 -113 -3445 -190 -5010 -190 -508 0 -750 7 -1175 35 -1637 108
-2847 267 -3520 462 -164 47 -255 84 -352 140 -183 107 -227 186 -169 308 60
130 198 234 461 349 342 151 724 252 1390 371 354 62 322 55 299 68 -31 17
-534 18 -704 1z"/>
<path d="M18799 2397 c-661 -482 -1327 -783 -2345 -1061 -1134 -309 -2627
-517 -4294 -597 -539 -25 -764 -30 -1600 -36 -1544 -9 -2880 44 -4410 177
-767 67 -1137 100 -1173 105 -28 4 -38 2 -35 -7 8 -22 72 -46 268 -103 1195
-342 2569 -533 4290 -596 408 -15 1477 -15 1880 0 1593 59 3055 209 4300 442
902 169 1514 364 2135 683 339 174 578 340 785 546 175 174 263 302 309 454
12 37 21 70 21 72 0 13 -30 -5 -131 -79z"/>
</g>
</svg>
