<?xml version="1.0" standalone="no"?>
<!DOCTYPE svg PUBLIC "-//W3C//DTD SVG 20010904//EN"
 "http://www.w3.org/TR/2001/REC-SVG-20010904/DTD/svg10.dtd">
<svg version="1.0" xmlns="http://www.w3.org/2000/svg"
 width="208.000000pt" height="243.000000pt" viewBox="0 0 208.000000 243.000000"
 preserveAspectRatio="xMidYMid meet">
<metadata>
Created by potrace 1.16, written by Peter Selinger 2001-2019
</metadata>
<g transform="translate(0.000000,243.000000) scale(0.100000,-0.100000)"
fill="#000000" stroke="none">
<path d="M923 2226 c-72 -18 -120 -58 -152 -125 -26 -56 -26 -57 -26 -307 l0
-250 -29 -45 c-16 -24 -59 -87 -96 -139 -40 -57 -80 -129 -100 -180 -18 -47
-50 -119 -70 -160 -43 -86 -54 -126 -44 -164 6 -26 9 -27 46 -21 38 7 42 5 86
-41 49 -52 194 -259 231 -331 49 -98 8 -213 -77 -213 -42 0 -485 116 -490 128
-2 8 5 31 17 52 26 47 26 74 0 144 -28 73 -17 90 51 81 62 -9 98 7 116 51 8
20 13 46 11 58 -3 19 -4 18 -17 -9 -27 -59 -49 -75 -105 -75 -89 0 -114 -41
-85 -140 8 -27 7 -50 -7 -103 -17 -66 -17 -68 3 -87 13 -13 63 -30 149 -49 72
-16 173 -46 225 -66 122 -48 157 -49 207 -9 83 67 91 69 297 72 103 2 198 1
210 -2 12 -3 29 -19 39 -36 25 -42 66 -60 134 -60 65 0 78 7 171 86 33 29 87
64 119 80 84 40 161 94 168 115 8 26 -9 54 -49 78 -60 37 -106 97 -106 136 0
39 -15 47 -23 12 -8 -28 6 -90 26 -121 9 -13 34 -28 61 -36 57 -16 82 -41 67
-68 -15 -28 -47 -46 -135 -77 -48 -18 -107 -50 -158 -86 -69 -50 -87 -59 -124
-59 -34 0 -51 6 -76 29 -32 28 -32 31 -29 97 6 91 5 149 -4 270 -7 87 -5 102
9 117 26 25 44 21 60 -15 15 -38 51 -73 83 -82 58 -18 205 97 219 170 15 82
-17 245 -71 359 -19 39 -68 118 -110 175 -42 58 -99 150 -126 205 -49 99 -49
101 -64 259 -18 190 -26 222 -68 278 -68 91 -233 138 -364 104z m244 -292 c28
-17 46 -75 41 -134 -2 -37 -6 -45 -23 -45 -17 0 -20 7 -20 48 0 53 -19 77 -61
77 -30 0 -46 -22 -47 -66 -1 -42 12 -55 82 -81 71 -26 72 -27 65 -102 -5 -63
-4 -68 31 -121 19 -30 44 -84 55 -120 11 -36 41 -107 67 -158 45 -88 47 -96
50 -190 5 -138 7 -142 48 -142 62 0 88 76 65 192 -13 66 -41 128 -96 216 -19
28 -30 52 -25 52 17 0 78 -80 112 -147 29 -57 35 -79 38 -150 1 -46 -2 -97 -8
-115 -10 -28 -9 -35 5 -43 9 -5 26 -18 38 -28 20 -18 20 -18 1 -11 -31 11
-102 17 -131 10 -13 -4 -30 -18 -36 -32 -6 -13 -23 -27 -37 -31 -14 -3 -31
-10 -37 -15 -8 -5 -14 -70 -19 -176 -6 -162 -18 -279 -30 -290 -3 -3 -11 0
-17 6 -9 9 -9 26 2 75 23 107 23 116 7 123 -9 3 -33 -13 -63 -43 -58 -58 -104
-74 -221 -76 -70 -1 -86 1 -112 21 -50 36 -66 29 -31 -15 24 -30 26 -62 5 -89
-14 -18 -14 -18 -15 11 0 16 -16 56 -36 88 l-36 58 31 28 c54 51 46 69 -83
175 -193 159 -225 206 -213 312 9 79 25 72 19 -8 -4 -69 -3 -76 23 -106 15
-18 30 -32 35 -32 4 0 10 37 14 83 9 107 29 176 77 265 29 56 39 85 39 121 0
33 10 68 35 120 19 40 35 79 35 86 0 32 20 21 59 -30 36 -48 46 -55 76 -55 25
0 49 11 82 36 27 20 72 50 101 66 28 17 52 35 52 40 0 13 -17 8 -115 -36 -95
-42 -124 -44 -162 -11 l-28 24 57 1 c44 0 81 10 158 41 57 24 100 48 100 55 0
19 -6 18 -38 -5 -41 -30 -151 -63 -212 -65 -52 -1 -58 2 -93 36 -20 21 -37 44
-37 52 0 8 21 33 48 56 62 55 65 63 48 105 -16 36 -41 46 -64 23 -17 -17 -15
-64 4 -83 9 -8 13 -22 10 -30 -16 -43 -46 13 -46 89 0 61 25 96 68 96 39 0 50
-15 63 -82 10 -50 15 -58 34 -58 13 0 30 -3 39 -6 13 -5 16 1 16 30 0 48 22
99 51 120 26 18 68 14 106 -10z"/>
</g>
</svg>
