<?xml version="1.0" standalone="no"?>
<!DOCTYPE svg PUBLIC "-//W3C//DTD SVG 20010904//EN"
 "http://www.w3.org/TR/2001/REC-SVG-20010904/DTD/svg10.dtd">
<svg version="1.0" xmlns="http://www.w3.org/2000/svg"
 width="488.000000pt" height="646.000000pt" viewBox="0 0 488.000000 646.000000"
 preserveAspectRatio="xMidYMid meet">
<metadata>
Created by potrace 1.16, written by Peter Selinger 2001-2019
</metadata>
<g transform="translate(0.000000,646.000000) scale(0.100000,-0.100000)"
fill="#000000" stroke="none">
<path d="M591 6047 c-47 -15 -98 -69 -111 -119 -23 -83 16 -170 92 -207 l44
-21 1829 0 1829 0 44 21 c128 62 131 252 5 315 -37 18 -90 19 -1868 21 -1299
1 -1840 -2 -1864 -10z"/>
<path d="M591 5457 c-47 -15 -98 -69 -111 -119 -23 -83 16 -170 92 -207 l44
-21 1829 0 1829 0 44 21 c128 62 131 252 5 315 -37 18 -90 19 -1868 21 -1299
1 -1840 -2 -1864 -10z"/>
<path d="M597 4865 c-92 -32 -145 -134 -117 -221 17 -51 75 -112 118 -124 51
-14 3643 -14 3694 0 43 12 101 73 118 124 30 91 -32 199 -128 226 -25 6 -630
10 -1842 10 -1503 -1 -1811 -3 -1843 -15z"/>
<path d="M575 4261 c-125 -57 -141 -222 -28 -308 l36 -28 1862 0 1862 0 36 28
c72 55 95 142 58 222 -22 48 -44 69 -94 90 -32 13 -242 15 -1864 15 -1752 0
-1830 -1 -1868 -19z"/>
<path d="M575 3671 c-125 -57 -141 -222 -28 -308 l36 -28 1862 0 1862 0 36 28
c72 55 95 142 58 222 -22 48 -44 69 -94 90 -32 13 -242 15 -1864 15 -1752 0
-1830 -1 -1868 -19z"/>
<path d="M575 3081 c-125 -57 -141 -222 -28 -308 l36 -28 1862 0 1862 0 36 28
c72 55 95 142 58 222 -22 48 -44 69 -94 90 -32 13 -242 15 -1864 15 -1752 0
-1830 -1 -1868 -19z"/>
<path d="M715 2371 c-109 -49 -137 -176 -54 -246 17 -14 75 -38 132 -56 56
-17 116 -40 133 -50 81 -49 64 -163 -29 -198 -40 -16 -129 -14 -170 4 -19 8
-49 26 -66 41 -30 25 -33 26 -49 10 -24 -23 -7 -45 63 -81 52 -26 69 -30 144
-30 72 0 93 4 126 23 58 34 78 67 83 132 8 106 -24 137 -202 196 -123 41 -156
66 -156 116 0 67 59 111 145 110 57 0 118 -22 151 -53 20 -19 21 -19 37 -1 16
17 16 20 -6 40 -64 60 -199 81 -282 43z"/>
<path d="M2677 2333 c-4 -3 -7 -33 -7 -65 l0 -58 -35 0 c-28 0 -35 -4 -35 -20
0 -16 7 -20 34 -20 l34 0 4 -181 3 -181 28 -24 c46 -39 141 -24 124 19 -5 14
-11 15 -32 7 -30 -11 -59 0 -69 26 -3 8 -6 87 -6 175 l0 159 45 0 c38 0 45 3
45 19 0 16 -8 20 -42 23 l-43 3 -3 63 c-2 52 -6 62 -21 62 -10 0 -21 -3 -24
-7z"/>
<path d="M1301 2218 c-115 -20 -186 -132 -167 -264 21 -159 168 -239 306 -166
176 92 140 395 -50 430 -25 4 -65 5 -89 0z m119 -60 c60 -41 75 -71 78 -156 4
-99 -20 -145 -90 -180 -65 -32 -119 -24 -169 27 -70 70 -78 186 -18 272 41 59
140 77 199 37z"/>
<path d="M1847 2215 c-25 -6 -62 -24 -81 -39 l-36 -27 0 30 c0 26 -4 31 -25
31 l-25 0 0 -220 0 -220 25 0 25 0 0 168 c0 162 1 169 23 189 63 58 159 72
202 28 25 -24 25 -26 25 -205 l0 -180 25 0 25 0 0 180 c0 186 -6 217 -45 250
-25 21 -88 28 -138 15z"/>
<path d="M2307 2219 c-51 -8 -117 -50 -117 -74 0 -24 21 -28 43 -7 36 32 63
42 116 42 42 0 56 -5 83 -29 27 -24 32 -36 36 -90 2 -33 1 -61 -3 -61 -4 0
-21 10 -38 22 -23 16 -49 24 -97 26 -55 3 -70 0 -100 -20 -93 -63 -90 -190 6
-245 63 -36 162 -25 216 24 17 15 18 14 18 -10 0 -20 5 -27 20 -27 19 0 20 7
20 185 l0 185 -32 35 c-38 41 -95 55 -171 44z m126 -235 c34 -23 37 -28 37
-72 0 -38 -5 -53 -22 -69 -36 -33 -63 -43 -113 -43 -135 0 -169 158 -45 209
35 14 99 3 143 -25z"/>
<path d="M3515 2218 c-22 -5 -57 -22 -77 -39 l-38 -30 0 31 c0 25 -4 30 -25
30 l-25 0 0 -305 0 -305 25 0 25 0 0 122 0 122 33 -30 c44 -42 88 -57 148 -52
56 6 111 43 142 96 38 65 39 188 1 267 -34 72 -123 111 -209 93z m105 -56 c56
-30 82 -90 78 -184 -3 -68 -6 -80 -34 -115 -59 -73 -154 -78 -229 -12 l-35 31
0 112 c0 104 2 114 23 133 59 54 135 67 197 35z"/>
<path d="M4021 2218 c-59 -10 -110 -52 -144 -119 -25 -48 -28 -62 -24 -122 6
-93 42 -152 116 -189 39 -20 70 -28 106 -28 36 0 67 8 105 28 57 28 65 38 51
60 -6 11 -16 8 -46 -12 -114 -77 -251 -23 -280 112 l-7 32 186 0 186 0 0 38
c0 52 -41 134 -82 166 -42 31 -107 45 -167 34z m119 -57 c40 -21 80 -83 80
-124 l0 -28 -157 3 -158 3 3 30 c11 107 134 168 232 116z"/>
<path d="M2853 2198 c3 -7 44 -106 92 -220 l88 -208 -18 -47 c-25 -66 -58 -97
-96 -89 -26 5 -29 3 -29 -19 0 -22 4 -25 40 -25 75 0 95 31 225 337 63 150
115 275 115 278 0 4 -12 5 -26 3 -24 -3 -33 -19 -104 -193 l-78 -189 -17 39
c-125 309 -141 340 -170 343 -20 3 -26 0 -22 -10z"/>
<path d="M1257 1293 c-4 -75 -7 -212 -7 -305 l0 -168 30 0 30 0 2 262 3 262
30 -45 c17 -24 32 -49 35 -55 3 -6 73 -104 155 -217 142 -195 152 -207 183
-207 l32 0 0 305 0 305 -30 0 -30 0 -2 -247 -3 -247 -106 145 c-59 79 -117
155 -130 169 -13 14 -49 60 -79 103 -44 62 -60 77 -81 77 l-26 0 -6 -137z"/>
<path d="M2065 1273 c-71 -12 -108 -28 -136 -61 -44 -50 -61 -97 -61 -169 -1
-163 111 -258 273 -232 48 8 129 50 129 67 0 4 -7 16 -15 26 -15 19 -15 19
-37 -2 -32 -29 -71 -42 -127 -42 -75 0 -143 56 -157 128 l-6 32 186 0 186 0 0
23 c-1 81 -48 175 -100 202 -35 18 -106 32 -135 28z m105 -73 c30 -21 69 -88
70 -117 0 -10 -38 -13 -156 -13 l-156 0 6 32 c8 42 51 97 90 114 42 19 107 12
146 -16z"/>
<path d="M3445 1269 c-70 -13 -95 -27 -110 -64 -20 -46 -19 -74 4 -111 20 -33
52 -48 164 -79 99 -27 125 -79 66 -129 -50 -42 -149 -33 -210 20 -14 12 -18
11 -34 -6 -15 -17 -16 -22 -4 -36 45 -54 204 -76 271 -37 44 25 70 77 64 126
-7 63 -57 102 -162 126 -108 26 -142 72 -88 122 21 20 36 24 84 24 47 -1 64
-6 93 -27 34 -27 35 -27 52 -8 21 23 13 38 -32 56 -52 22 -113 31 -158 23z"/>
<path d="M2370 1254 c0 -3 34 -50 76 -104 49 -64 73 -104 68 -112 -6 -10 -89
-119 -157 -205 -7 -10 -1 -13 26 -13 33 0 41 6 104 90 37 49 70 89 73 90 3 0
36 -40 73 -90 63 -84 70 -90 103 -90 l36 0 -29 38 c-15 21 -54 72 -86 114
l-59 77 76 99 c42 55 76 102 76 106 0 4 -14 6 -32 4 -27 -2 -42 -16 -90 -78
-32 -41 -62 -75 -67 -75 -5 0 -33 32 -62 70 -29 39 -57 73 -63 77 -13 9 -66
11 -66 2z"/>
<path d="M2850 1085 c0 -192 8 -230 54 -260 53 -35 171 -18 229 33 16 14 17
13 17 -11 0 -23 4 -27 30 -27 l30 0 -2 218 -3 217 -27 3 -28 3 0 -165 c0 -155
-1 -167 -21 -187 -49 -49 -148 -65 -190 -30 -23 19 -24 25 -29 198 l-5 178
-27 3 -28 3 0 -176z"/>
</g>
</svg>
