<?xml version="1.0" encoding="iso-8859-1"?>
<!-- Generator: Adobe Illustrator 16.0.0, SVG Export Plug-In . SVG Version: 6.00 Build 0)  -->
<!DOCTYPE svg PUBLIC "-//W3C//DTD SVG 1.1//EN" "http://www.w3.org/Graphics/SVG/1.1/DTD/svg11.dtd">
<svg version="1.1" id="Capa_1" xmlns="http://www.w3.org/2000/svg" xmlns:xlink="http://www.w3.org/1999/xlink" x="0px" y="0px"
	 width="35.974px" height="35.974px" viewBox="0 0 35.974 35.974" style="enable-background:new 0 0 35.974 35.974;"
	 xml:space="preserve">
<g>
	<path d="M18.07,7.926c-0.083-0.003-0.164-0.008-0.246-0.007h0.327C18.122,7.919,18.095,7.926,18.07,7.926z M28.021,11.903
		c0.062,0,0.118,0.004,0.178,0.006c0.021,0,0.039-0.006,0.06-0.006H28.021z M13.423,15.885c0.012-0.002,0.021-0.015,0.032-0.018
		c0.728,2.637,2.616,4.611,4.532,4.653c1.748-0.08,3.89-2.02,4.604-4.642c0.329,0.02,0.655-0.368,0.749-0.907
		c0.098-0.562-0.104-1.063-0.441-1.122c-0.022-0.004-0.043,0.01-0.064,0.01c-0.1-4.339-2.16-5.869-4.757-5.935
		c-2.676,0.011-5.074,1.873-4.922,5.936c-0.025,0-0.049-0.015-0.075-0.011c-0.339,0.059-0.538,0.56-0.442,1.122
		C12.729,15.533,13.082,15.942,13.423,15.885z M17.949,20.522h0.074c-0.014,0-0.028-0.002-0.042-0.002
		C17.97,20.521,17.961,20.522,17.949,20.522z M24.843,17.652c0.009-0.003,0.015-0.011,0.022-0.013
		c0.526,1.903,1.888,3.326,3.27,3.355c1.262-0.058,2.807-1.457,3.322-3.348c0.236,0.013,0.474-0.265,0.539-0.654
		c0.068-0.406-0.073-0.769-0.319-0.81c-0.015-0.003-0.03,0.008-0.045,0.008c-0.071-3.131-1.56-4.235-3.433-4.282
		c-1.93,0.008-3.66,1.352-3.551,4.282c-0.02,0-0.035-0.012-0.054-0.008c-0.244,0.041-0.39,0.404-0.319,0.81
		C24.343,17.397,24.597,17.692,24.843,17.652z M28.167,20.996c-0.013,0-0.021-0.002-0.031-0.002c-0.006,0-0.017,0.001-0.021,0.002
		H28.167z M21.593,21.272L19.16,26.03l-0.383-3.095l0.601-0.492h-1.455h-1.33l0.601,0.492L16.81,26.03l-2.43-4.758
		c-4.225,0.569-7.258,2.38-7.258,6.782h21.73C28.85,23.652,25.816,21.842,21.593,21.272z M7.722,11.903
		c0.061,0,0.119,0.004,0.177,0.006c0.02,0,0.04-0.006,0.059-0.006H7.722z M8.407,22.736l0.433-0.354H7.791H6.832l0.433,0.354
		l-0.277,2.232l-1.751-3.432C2.188,21.948,0,23.255,0,26.431h6.985c0.231-1.184,0.734-2.174,1.513-2.98L8.407,22.736z
		 M30.736,21.537l-1.752,3.433l-0.276-2.232l0.433-0.354h-1.05h-0.959l0.435,0.354l-0.088,0.713c0.775,0.808,1.278,1.798,1.512,2.98
		h6.983C35.973,23.255,33.785,21.948,30.736,21.537z M7.867,20.996c-0.011,0-0.02-0.002-0.03-0.002
		c-0.007,0-0.016,0.001-0.023,0.002H7.867z M4.545,17.652c0.009-0.003,0.015-0.011,0.024-0.013c0.525,1.903,1.886,3.326,3.269,3.355
		c1.26-0.058,2.806-1.457,3.321-3.348c0.236,0.013,0.474-0.265,0.54-0.654c0.069-0.406-0.075-0.769-0.32-0.81
		c-0.016-0.003-0.031,0.008-0.046,0.008c-0.071-3.131-1.559-4.235-3.432-4.282c-1.93,0.008-3.66,1.352-3.551,4.282
		c-0.019,0-0.035-0.012-0.053-0.008c-0.245,0.041-0.389,0.404-0.32,0.81C4.046,17.397,4.299,17.692,4.545,17.652z"/>
</g>
<g>
</g>
<g>
</g>
<g>
</g>
<g>
</g>
<g>
</g>
<g>
</g>
<g>
</g>
<g>
</g>
<g>
</g>
<g>
</g>
<g>
</g>
<g>
</g>
<g>
</g>
<g>
</g>
<g>
</g>
</svg>
