<svg height="512" viewBox="0 0 512 512" width="512" xmlns="http://www.w3.org/2000/svg"><g id="Filled_outline" data-name="Filled outline"><path d="m56 328h432v160h-432z" fill="#3086cd"/><path d="m56 328h144v160h-144z" fill="#348fd9"/><path d="m56 328h144v16h-144z" fill="#3086cd"/><path d="m200 328h256v16h-256z" fill="#2d7dbf"/><path d="m24 168h432v160h-432z" fill="#ba3f33"/><path d="m24 168h144v160h-144z" fill="#d75246"/><path d="m240 352v112h-16v-112zm16 0v112h16v-112zm32 0v112h16v-112zm32 0v112h16v-112zm32 0v112h16v-112zm32 0v112h16v-112zm32 0v112h16v-112zm32 0v112h16v-112zm48-24a8 8 0 0 0 -8-8h-8v112h16zm0 160v-40h-16v32h-272v-128h-32v16h16v80h-16v16h16v16h-56v-128h-16v128h-56v-16h16v-16h-16v-80h16v-16h-24a8 8 0 0 0 -8 8v128a8 8 0 0 0 8 8h432a8 8 0 0 0 8-8zm-480-160v-88h16v48h16v16h-16v16h56v-144h-56v16h16v16h-16v16h-16v-56a8 8 0 0 1 4.753-7.307l.115-.051.029-.013 195.183-86.753c-.048-.62-.08-1.244-.08-1.876v-16h16v10.8l4.751-2.112a8 8 0 0 1 6.5 0l4.749 2.112v-7.487l-13.657-13.656a8 8 0 0 1 -2.343-5.657v-24h16v20.687l13.657 13.656a8 8 0 0 1 2.343 5.657v16c0 .632-.032 1.256-.08 1.876l195.185 86.749.029.013.115.051a8 8 0 0 1 4.751 7.311v160a8 8 0 0 1 -8 8h-432a8 8 0 0 1 -8-8zm144-152h-56v144h56v-16h-16v-16h16v-80h-16v-16h16zm288 0h-272v144h272zm-29.7-16-160.889-71.507a23.944 23.944 0 0 1 -34.822 0l-160.889 71.507zm-210.3 64h-16v80h16zm0-32h-16v16h16zm32 0h-16v112h16zm32 0h-16v112h16zm32 0h-16v112h16zm32 0h-16v112h16zm32 0h-16v112h16zm32 0h-16v112h16zm32 0h-16v112h16z"/></g></svg>