<?xml version="1.0" encoding="UTF-8"?>
<svg xmlns="http://www.w3.org/2000/svg" xmlns:xlink="http://www.w3.org/1999/xlink" viewBox="0 0 64 64" width="64px" height="64px">
<g id="surface123935869">
<path style=" stroke:none;fill-rule:nonzero;fill:rgb(22.352941%,43.921569%,89.411765%);fill-opacity:1;" d="M 42 19 C 39.789062 19 38 20.789062 38 23 C 38 25.210938 39.789062 27 42 27 C 44.210938 27 46 25.210938 46 23 C 46 20.789062 44.210938 19 42 19 Z M 42 19 "/>
<path style=" stroke:none;fill-rule:nonzero;fill:rgb(22.352941%,43.921569%,89.411765%);fill-opacity:1;" d="M 55 20 L 53.605469 20 C 53.320312 18.9375 52.859375 17.921875 52.269531 16.972656 L 53.3125 15.929688 C 54.484375 14.757812 54.484375 12.855469 53.3125 11.6875 C 52.144531 10.515625 50.242188 10.515625 49.070312 11.6875 L 48.015625 12.742188 C 47.070312 12.164062 46.058594 11.707031 45 11.40625 L 45 10 C 45 8.347656 43.652344 7 42 7 C 40.347656 7 39 8.347656 39 10 L 39 11.40625 C 37.941406 11.707031 36.929688 12.164062 35.984375 12.742188 L 34.929688 11.6875 C 33.757812 10.515625 31.855469 10.515625 30.6875 11.6875 C 30.054688 12.320312 29.773438 13.167969 29.828125 14 L 9 14 C 7.347656 14 6 15.34375 6 17 L 6 51 C 6 52.300781 6.839844 53.402344 8 53.816406 L 8 55 C 8 56.101562 8.898438 57 10 57 L 39 57 C 40.101562 57 41 56.101562 41 55 L 41 53.816406 C 42.160156 53.402344 43 52.300781 43 51 L 43 38.816406 C 44.160156 38.402344 45 37.300781 45 36 L 45 34.59375 C 46.058594 34.292969 47.070312 33.835938 48.015625 33.257812 L 49.070312 34.3125 C 49.65625 34.898438 50.425781 35.191406 51.191406 35.191406 C 51.960938 35.191406 52.726562 34.898438 53.3125 34.3125 C 54.484375 33.144531 54.484375 31.242188 53.3125 30.070312 L 52.269531 29.027344 C 52.859375 28.078125 53.320312 27.0625 53.605469 26 L 55 26 C 56.652344 26 58 24.652344 58 23 C 58 21.347656 56.652344 20 55 20 Z M 50.484375 13.101562 C 50.863281 12.722656 51.519531 12.722656 51.898438 13.101562 C 52.085938 13.289062 52.191406 13.539062 52.191406 13.808594 C 52.191406 14.074219 52.089844 14.324219 51.898438 14.515625 L 51.0625 15.351562 C 50.628906 14.847656 50.152344 14.375 49.644531 13.941406 Z M 32.101562 13.101562 C 32.480469 12.722656 33.136719 12.722656 33.515625 13.101562 L 34.355469 13.941406 C 33.847656 14.375 33.375 14.847656 32.9375 15.351562 L 32.101562 14.515625 C 31.914062 14.324219 31.808594 14.074219 31.808594 13.808594 C 31.808594 13.539062 31.910156 13.289062 32.101562 13.101562 Z M 10 55 L 10 54 L 39 54 L 39 55 Z M 40 52 L 9 52 C 8.449219 52 8 51.550781 8 51 L 8 17 C 8 16.449219 8.449219 16 9 16 L 30.757812 16 L 31.730469 16.972656 C 31.140625 17.921875 30.679688 18.9375 30.390625 20 L 29 20 C 27.347656 20 26 21.347656 26 23 C 26 24.652344 27.347656 26 29 26 L 30.394531 26 C 30.679688 27.0625 31.140625 28.078125 31.730469 29.027344 L 30.6875 30.070312 C 29.515625 31.242188 29.515625 33.144531 30.6875 34.3125 C 31.273438 34.898438 32.039062 35.191406 32.808594 35.191406 C 33.574219 35.191406 34.34375 34.898438 34.929688 34.3125 L 35.984375 33.257812 C 36.929688 33.835938 37.941406 34.292969 39 34.59375 L 39 36 C 39 37.300781 39.839844 38.402344 41 38.816406 L 41 51 C 41 51.550781 40.550781 52 40 52 Z M 32.101562 31.484375 L 32.9375 30.648438 C 33.371094 31.152344 33.847656 31.625 34.355469 32.058594 L 33.515625 32.898438 C 33.136719 33.277344 32.480469 33.277344 32.101562 32.898438 C 31.910156 32.710938 31.808594 32.460938 31.808594 32.191406 C 31.808594 31.925781 31.910156 31.675781 32.101562 31.484375 Z M 51.898438 31.484375 C 52.085938 31.675781 52.191406 31.925781 52.191406 32.191406 C 52.191406 32.460938 52.089844 32.710938 51.898438 32.898438 C 51.519531 33.277344 50.863281 33.277344 50.484375 32.898438 L 49.644531 32.058594 C 50.152344 31.625 50.625 31.152344 51.0625 30.648438 Z M 55 24 L 51.976562 24 L 51.828125 24.820312 C 51.132812 28.589844 47.683594 32.03125 43.800781 32.828125 L 43 32.992188 L 43 36 C 43 36.550781 42.550781 37 42 37 C 41.449219 37 41 36.550781 41 36 L 41 32.992188 L 40.199219 32.828125 C 36.316406 32.03125 32.867188 28.589844 32.175781 24.820312 L 32.023438 24 L 29 24 C 28.449219 24 28 23.550781 28 23 C 28 22.449219 28.449219 22 29 22 L 32.023438 22 L 32.171875 21.179688 C 32.867188 17.410156 36.316406 13.96875 40.199219 13.171875 L 41 13.007812 L 41 10 C 41 9.449219 41.449219 9 42 9 C 42.550781 9 43 9.449219 43 10 L 43 13.007812 L 43.800781 13.171875 C 47.683594 13.96875 51.132812 17.410156 51.824219 21.179688 L 51.976562 22 L 55 22 C 55.550781 22 56 22.449219 56 23 C 56 23.550781 55.550781 24 55 24 Z M 55 24 "/>
<path style=" stroke:none;fill-rule:nonzero;fill:rgb(22.352941%,43.921569%,89.411765%);fill-opacity:1;" d="M 42 15 C 37.589844 15 34 18.589844 34 23 C 34 27.410156 37.589844 31 42 31 C 46.410156 31 50 27.410156 50 23 C 50 18.589844 46.410156 15 42 15 Z M 42 29 C 38.691406 29 36 26.308594 36 23 C 36 19.691406 38.691406 17 42 17 C 45.308594 17 48 19.691406 48 23 C 48 26.308594 45.308594 29 42 29 Z M 42 29 "/>
<path style=" stroke:none;fill-rule:nonzero;fill:rgb(22.352941%,43.921569%,89.411765%);fill-opacity:1;" d="M 15 31 C 13.347656 31 12 32.347656 12 34 C 12 35.652344 13.347656 37 15 37 C 16.652344 37 18 35.652344 18 34 C 18 32.347656 16.652344 31 15 31 Z M 15 35 C 14.449219 35 14 34.550781 14 34 C 14 33.449219 14.449219 33 15 33 C 15.550781 33 16 33.449219 16 34 C 16 34.550781 15.550781 35 15 35 Z M 15 35 "/>
<path style=" stroke:none;fill-rule:nonzero;fill:rgb(22.352941%,43.921569%,89.411765%);fill-opacity:1;" d="M 15 23 C 13.347656 23 12 24.347656 12 26 C 12 27.652344 13.347656 29 15 29 C 16.652344 29 18 27.652344 18 26 C 18 24.347656 16.652344 23 15 23 Z M 15 27 C 14.449219 27 14 26.550781 14 26 C 14 25.449219 14.449219 25 15 25 C 15.550781 25 16 25.449219 16 26 C 16 26.550781 15.550781 27 15 27 Z M 15 27 "/>
<path style=" stroke:none;fill-rule:nonzero;fill:rgb(22.352941%,43.921569%,89.411765%);fill-opacity:1;" d="M 15 39 C 13.347656 39 12 40.347656 12 42 C 12 43.652344 13.347656 45 15 45 C 16.652344 45 18 43.652344 18 42 C 18 40.347656 16.652344 39 15 39 Z M 15 43 C 14.449219 43 14 42.550781 14 42 C 14 41.449219 14.449219 41 15 41 C 15.550781 41 16 41.449219 16 42 C 16 42.550781 15.550781 43 15 43 Z M 15 43 "/>
<path style=" stroke:none;fill-rule:nonzero;fill:rgb(22.352941%,43.921569%,89.411765%);fill-opacity:1;" d="M 20 27 L 25 27 L 25 29 L 20 29 Z M 20 27 "/>
<path style=" stroke:none;fill-rule:nonzero;fill:rgb(22.352941%,43.921569%,89.411765%);fill-opacity:1;" d="M 20 35 L 28 35 L 28 37 L 20 37 Z M 20 35 "/>
<path style=" stroke:none;fill-rule:nonzero;fill:rgb(22.352941%,43.921569%,89.411765%);fill-opacity:1;" d="M 20 43 L 37 43 L 37 45 L 20 45 Z M 20 43 "/>
<path style=" stroke:none;fill-rule:nonzero;fill:rgb(22.352941%,43.921569%,89.411765%);fill-opacity:1;" d="M 20 39 L 37 39 L 37 41 L 20 41 Z M 20 39 "/>
<path style=" stroke:none;fill-rule:nonzero;fill:rgb(22.352941%,43.921569%,89.411765%);fill-opacity:1;" d="M 20 31 L 28 31 L 28 33 L 20 33 Z M 20 31 "/>
<path style=" stroke:none;fill-rule:nonzero;fill:rgb(22.352941%,43.921569%,89.411765%);fill-opacity:1;" d="M 20 24 L 25 24 L 25 26 L 20 26 Z M 20 24 "/>
</g>
</svg>
