<svg height="480pt" viewBox="0 0 480 479" width="480pt" xmlns="http://www.w3.org/2000/svg"><path d="m40 264.316406c0 8.835938-7.164062 16-16 16s-16-7.164062-16-16c0-8.835937 7.164062-16 16-16s16 7.164063 16 16zm0 0" fill="#ff5023"/><path d="m240 296.316406c0 8.835938-7.164062 16-16 16s-16-7.164062-16-16c0-8.835937 7.164062-16 16-16s16 7.164063 16 16zm0 0" fill="#ff5023"/><path d="m232 216.316406h32v32h-32zm0 0" fill="#ffd422"/><path d="m472 392.316406v48c0 17.671875-14.328125 32-32 32h-32c-17.671875 0-32-14.328125-32-32v-48zm0 0" fill="#ffa733"/><path d="m440 344.316406c17.671875 0 32 14.328125 32 32v16h-96v-16c0-17.671875 14.328125-32 32-32zm0 0" fill="#ee8700"/><path d="m197.679688 80.316406h26.320312c22.089844 0 40 17.910156 40 40s-17.910156 40-40 40h-176c-22.089844 0-40-17.910156-40-40s17.910156-40 40-40h9.441406c-3.269531-9.046875-.792968-19.167968 6.28125-25.6875 7.078125-6.515625 17.371094-8.152344 26.117188-4.152344 6.960937-27.34375 33.191406-45.226562 61.191406-41.710937 27.996094 3.519531 48.992188 27.335937 48.96875 55.550781.015625 5.417969-.765625 10.808594-2.320312 16zm0 0" fill="#3d9ae2"/><path d="m48 168.316406h176c26.507812 0 48-21.488281 48-48 0-26.507812-21.492188-48-48-48h-16.503906c3.925781-31.90625-16.425782-61.773437-47.554688-69.792968-31.128906-8.019532-63.378906 8.296874-75.355468 38.128906-1.519532-.222656-3.050782-.335938-4.585938-.335938-17.671875 0-32 14.328125-32 32-26.507812 0-48 21.492188-48 48 0 26.511719 21.492188 48 48 48zm0-80h9.472656c2.59375-.003906 5.027344-1.261718 6.523438-3.382812 1.5-2.121094 1.875-4.832032 1.011718-7.28125-1.835937-4.882813-1.140624-10.359375 1.859376-14.628906 3-4.269532 7.914062-6.777344 13.132812-6.707032 2.246094.007813 4.464844.496094 6.503906 1.433594 2.15625.964844 4.628906.929688 6.761719-.089844 2.128906-1.027344 3.695313-2.941406 4.277344-5.230468 4.003906-17.160157 17.082031-30.746094 34.078125-35.394532 16.992187-4.652344 35.167968.382813 47.347656 13.113282 12.183594 12.726562 16.410156 31.109374 11.015625 47.878906-.722656 2.421875-.257813 5.042968 1.25 7.070312 1.507813 2.023438 3.886719 3.21875 6.414063 3.21875h26.351562c17.671875 0 32 14.328125 32 32s-14.328125 32-32 32h-176c-17.671875 0-32-14.328125-32-32s14.328125-32 32-32zm0 0"/><path d="m48 264.316406c0-13.253906-10.746094-24-24-24s-24 10.746094-24 24 10.746094 24 24 24 24-10.746094 24-24zm-32 0c0-4.417968 3.582031-8 8-8s8 3.582032 8 8c0 4.417969-3.582031 8-8 8s-8-3.582031-8-8zm0 0"/><path d="m104 264.316406v-48h-16v40h-24v16h32c4.417969 0 8-3.582031 8-8zm0 0"/><path d="m224 320.316406c13.253906 0 24-10.746094 24-24s-10.746094-24-24-24-24 10.746094-24 24 10.746094 24 24 24zm0-32c4.417969 0 8 3.582032 8 8 0 4.417969-3.582031 8-8 8s-8-3.582031-8-8c0-4.417968 3.582031-8 8-8zm0 0"/><path d="m152 288.316406h-8v-72h-16v80c0 4.417969 3.582031 8 8 8h16zm0 0"/><path d="m88 184.316406h16v16h-16zm0 0"/><path d="m128 184.316406h16v16h-16zm0 0"/><path d="m168 288.316406h16v16h-16zm0 0"/><path d="m160 72.316406h16v16h-16zm0 0"/><path d="m128 72.316406h16v16h-16zm0 0"/><path d="m272 248.316406v-32c0-4.417968-3.582031-8-8-8h-32c-4.417969 0-8 3.582032-8 8v32c0 4.417969 3.582031 8 8 8h32c4.417969 0 8-3.582031 8-8zm-16-8h-16v-16h16zm0 0"/><path d="m192 240.316406h16v-16h-12.6875l-11.3125-11.3125v-28.6875h-16v32c0 2.121094.84375 4.15625 2.34375 5.65625l16 16c1.5 1.5 3.535156 2.34375 5.65625 2.34375zm0 0"/><path d="m440 336.316406h-8v-248c0-13.253906-10.746094-24-24-24h-64c-13.253906 0-24 10.746094-24 24v312c0 4.417969-3.582031 8-8 8h-160c-4.417969 0-8-3.582031-8-8v-16h-16v16c0 13.253906 10.746094 24 24 24h160c13.253906 0 24-10.746094 24-24v-312c0-4.417968 3.582031-8 8-8h64c4.417969 0 8 3.582032 8 8v248h-8c-22.082031.027344-39.972656 17.917969-40 40v64c.027344 22.082032 17.917969 39.972656 40 40h32c22.082031-.027344 39.972656-17.917968 40-40v-64c-.027344-22.082031-17.917969-39.972656-40-40zm-32 16h32c13.253906 0 24 10.746094 24 24v8h-32v-16h-16v16h-32v-8c0-13.253906 10.746094-24 24-24zm32 112h-32c-13.253906 0-24-10.746094-24-24v-40h80v40c0 13.253906-10.746094 24-24 24zm0 0"/><path d="m128 352.316406h16v16h-16zm0 0"/><path d="m128 320.316406h16v16h-16zm0 0"/><path d="m64 408.316406v-16h-16v-16h-16v16h-16v16h16v16h16v-16zm0 0"/><path d="m32 344.316406h16v16h-16zm0 0"/><path d="m32 312.316406h16v16h-16zm0 0"/><path d="m96 416.316406h-16v16h-16v16h16v16h16v-16h16v-16h-16zm0 0"/><path d="m80 384.316406h16v16h-16zm0 0"/><path d="m80 352.316406h16v16h-16zm0 0"/><path d="m368 32.316406h16v16h-16zm0 0"/><path d="m400 32.316406h16v16h-16zm0 0"/><path d="m336 32.316406h16v16h-16zm0 0"/></svg>