<?xml version="1.0" encoding="iso-8859-1"?>
<!-- Generator: Adobe Illustrator 19.0.0, SVG Export Plug-In . SVG Version: 6.00 Build 0)  -->
<svg version="1.1" id="Layer_1" xmlns="http://www.w3.org/2000/svg" fill="#3970e4" xmlns:xlink="http://www.w3.org/1999/xlink" x="0px" y="0px"
	 viewBox="0 0 512 512" style="enable-background:new 0 0 512 512;" xml:space="preserve">
<g>
	<g>
		<path d="M500.787,287.812c0.068-0.068,0.137-0.137,0.205-0.196c7.1-7.117,11.008-16.563,11.008-26.607v-13.542
			c0-4.719-3.814-8.533-8.533-8.533h-23.953L322.193,176c-4.343-1.749-9.344,0.367-11.093,4.762
			c-1.749,4.369,0.384,9.336,4.762,11.085l117.692,47.087H81.741l146.68-54.323c7.543,12.075,20.855,20.19,36.113,20.19
			c23.526,0,42.667-19.14,42.667-42.667c0-20.608-14.686-37.845-34.133-41.805v-10.257c19.447-3.968,34.133-21.205,34.133-41.805
			V8.533c0-4.719-3.814-8.533-8.533-8.533s-8.533,3.814-8.533,8.533v25.822c-7.151-5.419-15.957-8.755-25.6-8.755
			c-9.643,0-18.449,3.337-25.6,8.755V8.533c0-4.719-3.814-8.533-8.533-8.533s-8.533,3.814-8.533,8.533v59.733
			c0,20.599,14.686,37.837,34.133,41.805V128c0,4.719,3.814,8.533,8.533,8.533c14.114,0,25.6,11.486,25.6,25.6
			s-11.486,25.6-25.6,25.6c-7.876,0-14.848-3.652-19.541-9.267l19.422-7.185l5.513,2.202c1.033,0.418,2.108,0.606,3.166,0.606
			c3.379,0,6.579-2.022,7.927-5.367c1.749-4.369-0.375-9.335-4.762-11.085l-8.559-3.43c-0.384-0.154-0.785-0.119-1.178-0.213
			c-0.623-0.154-1.22-0.341-1.869-0.35c-0.657-0.008-1.263,0.162-1.894,0.299c-0.393,0.085-0.794,0.043-1.195,0.188l-22.596,8.371
			c0-0.128-0.034-0.239-0.034-0.367c0-4.719-3.814-8.533-8.533-8.533s-8.533,3.814-8.533,8.533c0,2.21,0.324,4.335,0.657,6.46
			l-189.918,70.34H8.533c-4.719,0-8.533,3.814-8.533,8.533v13.559c0,9.916,4.028,19.618,11.034,26.624
			c3.891,3.874,6.033,9.045,6.033,14.541v146.56c0,5.325-2.133,10.547-5.862,14.362c-0.06,0.068-0.128,0.137-0.196,0.196
			C3.908,470.426,0,479.872,0,489.916v13.551C0,508.186,3.814,512,8.533,512h494.933c4.719,0,8.533-3.814,8.533-8.533v-13.534
			c0-9.882-4.002-19.567-11.059-26.633c-3.814-3.84-6.007-9.131-6.007-14.532V302.182
			C494.933,296.772,497.007,291.678,500.787,287.812z M85.333,460.8c0,4.719-3.814,8.533-8.533,8.533s-8.533-3.814-8.533-8.533
			V290.133c0-4.719,3.814-8.533,8.533-8.533s8.533,3.814,8.533,8.533V460.8z M136.533,460.8c0,4.719-3.814,8.533-8.533,8.533
			s-8.533-3.814-8.533-8.533V290.133c0-4.719,3.814-8.533,8.533-8.533s8.533,3.814,8.533,8.533V460.8z M187.733,460.8
			c0,4.719-3.814,8.533-8.533,8.533s-8.533-3.814-8.533-8.533V290.133c0-4.719,3.814-8.533,8.533-8.533s8.533,3.814,8.533,8.533
			V460.8z M238.933,460.8c0,4.719-3.814,8.533-8.533,8.533s-8.533-3.814-8.533-8.533V290.133c0-4.719,3.814-8.533,8.533-8.533
			s8.533,3.814,8.533,8.533V460.8z M290.133,460.8c0,4.719-3.814,8.533-8.533,8.533c-4.719,0-8.533-3.814-8.533-8.533V290.133
			c0-4.719,3.814-8.533,8.533-8.533c4.719,0,8.533,3.814,8.533,8.533V460.8z M341.333,460.8c0,4.719-3.814,8.533-8.533,8.533
			c-4.719,0-8.533-3.814-8.533-8.533V290.133c0-4.719,3.814-8.533,8.533-8.533c4.719,0,8.533,3.814,8.533,8.533V460.8z
			 M392.533,460.8c0,4.719-3.814,8.533-8.533,8.533c-4.719,0-8.533-3.814-8.533-8.533V290.133c0-4.719,3.814-8.533,8.533-8.533
			c4.719,0,8.533,3.814,8.533,8.533V460.8z M443.733,460.8c0,4.719-3.814,8.533-8.533,8.533s-8.533-3.814-8.533-8.533V290.133
			c0-4.719,3.814-8.533,8.533-8.533s8.533,3.814,8.533,8.533V460.8z"/>
	</g>
</g>
<g>
</g>
<g>
</g>
<g>
</g>
<g>
</g>
<g>
</g>
<g>
</g>
<g>
</g>
<g>
</g>
<g>
</g>
<g>
</g>
<g>
</g>
<g>
</g>
<g>
</g>
<g>
</g>
<g>
</g>
</svg>
