<svg id="Layer_5" enable-background="new 0 0 64 64" height="512" viewBox="0 0 64 64" width="512" xmlns="http://www.w3.org/2000/svg"><g><g><g><path d="m14 35.25.13.05c-.09.22-.13.45-.13.7v2h-4c-1.1 0-2 .9-2 2v1.43c-3.7-1.64-6-3.91-6-6.43v-8c0 3.69 4.94 6.86 12 8.25z" fill="#fc6e51"/></g><g><path d="m42 11v8c0 2.83-2.9 5.35-7.43 7h-2.57c-.85 0-1.59.54-1.87 1.3l-.13-.05c-2.45.48-5.16.75-8 .75-11.05 0-20-4.03-20-9v-8c0 4.97 8.95 9 20 9s20-4.03 20-9z" fill="#fc6e51"/></g><g><path d="m42 19v7h-7.43c4.53-1.65 7.43-4.17 7.43-7z" fill="#ff826e"/></g><g><path d="m30 28v2h-8c-1.1 0-2 .9-2 2v2h-4c-.85 0-1.59.54-1.87 1.3l-.13-.05c-7.06-1.39-12-4.56-12-8.25v-8c0 4.97 8.95 9 20 9 2.84 0 5.55-.27 8-.75l.13.05c-.09.22-.13.45-.13.7z" fill="#ff826e"/></g><g><path d="m42 11c0 4.97-8.95 9-20 9s-20-4.03-20-9 8.95-9 20-9 20 4.03 20 9z" fill="#ff826e"/></g><g><ellipse cx="22" cy="11" fill="#5cd6b3" rx="12" ry="3"/></g><g><path d="m36 62h-28c-1.1 0-2-.9-2-2v-8h2 6 6 8 4v6c0 2.21 1.79 4 4 4z" fill="#d3a06c"/></g><g><path d="m32 48v4 6c0 2.21 1.79 4 4 4h1 21c2.21 0 4-1.79 4-4v-10z" fill="#cf9e76"/></g><g><path d="m54 48v2c0 1.1-.9 2-2 2h-10c-1.1 0-2-.9-2-2v-2z" fill="#5cd6b3"/></g><g><path d="m14 38v14h-6v-10.57-1.43c0-1.1.9-2 2-2z" fill="#f0d0b4"/></g><g><path d="m20 34v18h-6v-14-2c0-.25.04-.48.13-.7.28-.76 1.02-1.3 1.87-1.3z" fill="#e6e9ed"/></g><g><path d="m30 30v8c-1.1 0-2 .9-2 2v2 10h-8v-18-2c0-1.1.9-2 2-2z" fill="#f0d0b4"/></g><g><path d="m58 28v6h-7c-.63 0-1.22.3-1.6.8l-2.4 3.2h-17v-8-2c0-.25.04-.48.13-.7.28-.76 1.02-1.3 1.87-1.3h2.57 7.43 14c1.1 0 2 .9 2 2z" fill="#e6e9ed"/></g><g><path d="m60 42v6h-6-14-8v4h-4v-10z" fill="#ffeaa7"/></g><g><path d="m60 36v6h-32v-2c0-1.1.9-2 2-2h17l2.4-3.2c.38-.5.97-.8 1.6-.8h7c1.1 0 2 .9 2 2z" fill="#fcd770"/></g></g><g><path d="m61 47v-11c0-1.302-.839-2.402-2-2.816v-5.184c0-1.654-1.346-3-3-3h-13v-14c0-5.607-9.225-10-21-10s-21 4.393-21 10v24c0 2.716 2.138 5.198 6 7.05v8.95h-2v9c0 1.654 1.346 3 3 3h28 1 21c2.757 0 5-2.243 5-5v-11zm-30 0v4h-2v-8h30v4zm10 2h12v1c0 .551-.448 1-1 1h-10c-.552 0-1-.449-1-1zm-22 2h-4v-15c0-.551.448-1 1-1h3zm39-16c.552 0 1 .449 1 1v5h-30v-1c0-.551.448-1 1-1h17.5l2.701-3.601c.187-.25.486-.399.799-.399zm-29 2.184c-1.161.414-2 1.514-2 2.816v11h-6v-19c0-.551.448-1 1-1h7zm28-9.184v5h-6c-.94 0-1.837.449-2.399 1.2l-2.101 2.8h-15.5v-9c0-.551.448-1 1-1h24c.552 0 1 .449 1 1zm-16-3h-2.081c.809-.52 1.504-1.077 2.081-1.664zm-19-22c11.365 0 19 4.137 19 8s-7.635 8-19 8-19-4.137-19-8 7.635-8 19-8zm-19 12.304c3.323 3.393 10.484 5.696 19 5.696s15.677-2.303 19-5.696v3.696c0 2.222-2.471 4.458-6.612 6h-2.388c-1.032 0-1.943.524-2.483 1.319-2.38.448-4.905.681-7.517.681-11.365 0-19-4.137-19-8zm0 8c3.323 3.393 10.484 5.696 19 5.696 2.415 0 4.76-.197 7-.565v.565h-7c-1.654 0-3 1.346-3 3v1h-3c-.954 0-1.796.456-2.346 1.153-6.393-1.364-10.654-4.204-10.654-7.153zm0 11.696v-3.64c2.017 2.049 5.484 3.704 10 4.697v.943h-3c-1.594 0-2.889 1.253-2.982 2.824-2.567-1.409-4.018-3.123-4.018-4.824zm6 5c0-.551.448-1 1-1h3v12h-4zm-2 20v-7h24v5c0 1.13.391 2.162 1.026 3h-24.026c-.552 0-1-.449-1-1zm54-2c0 1.654-1.346 3-3 3h-21-1c-1.654 0-3-1.346-3-3v-9h6v1c0 1.654 1.346 3 3 3h10c1.654 0 3-1.346 3-3v-1h6z"/><path d="m55 37h2v2h-2z"/><path d="m51 37h2v2h-2z"/><path d="m33 29h22v2h-22z"/><path d="m33 33h12v2h-12z"/><path d="m22 15c4.828 0 13-.842 13-4s-8.172-4-13-4-13 .842-13 4 8.172 4 13 4zm0-6c6.465 0 10.405 1.246 10.969 2-.563.754-4.504 2-10.969 2s-10.405-1.246-10.969-2c.564-.754 4.504-2 10.969-2z"/></g></g></svg>