<svg xmlns="http://www.w3.org/2000/svg" xmlns:xlink="http://www.w3.org/1999/xlink" viewBox="0 0 79.688 85" fill="#fff" fill-rule="evenodd" stroke="#000" stroke-linecap="round" stroke-linejoin="round"><use xlink:href="#A" x="2.344" y="2.5"/><symbol id="A" overflow="visible"><g stroke="none"><path d="M0 16.727C0 9.441 5.756 3.576 12.906 3.576h49.189C69.244 3.576 75 9.441 75 16.727v50.123C75 74.135 69.244 80 62.094 80H12.906C5.756 80 0 74.135 0 66.849z" fill="#19486f"/><path d="M0 13.151C0 5.865 5.756 0 12.906 0h49.189C69.244 0 75 5.865 75 13.151v50.123c0 7.286-5.756 13.151-12.906 13.151H12.906C5.756 76.424 0 70.559 0 63.273z" fill="#2e73b8"/><path d="M19.783 19.813v.332c0 2.884-1.146 5.768-4.868 5.768-3.991 0-5.236-2.624-5.236-8.378s1.245-8.378 5.25-8.378c4.5 0 4.769 3.389 4.769 5.061v.288h-2.533v-.274c0-1.442-.439-3.201-2.264-3.144s-2.703 1.168-2.703 6.373.835 6.503 2.703 6.503c2.108 0 2.349-2.394 2.349-3.879v-.274zm4.769-10.354h3.241l4.16 16.121h-2.632l-.976-3.951h-4.627l-1.019 3.951h-2.646zm3.368 10.094l-1.811-7.945h0l-1.882 7.945zm14.873.26v.332c0 2.884-1.146 5.768-4.868 5.768-3.99 0-5.236-2.624-5.236-8.378s1.245-8.378 5.25-8.378c4.5 0 4.769 3.389 4.769 5.061v.288h-2.533v-.274c0-1.442-.439-3.201-2.264-3.144s-2.703 1.168-2.703 6.373.835 6.503 2.703 6.503c2.108 0 2.349-2.394 2.349-3.879v-.274zm1.783-10.354h2.519v6.46h4.656v-6.46h2.533V25.58h-2.533v-7.498h-4.656v7.498h-2.519zm12.311 0h8.491v2.163H59.42v4.47h5.66v2.163h-5.66v5.162h6.198v2.163h-8.731z"/></g></symbol></svg>