<svg xmlns="http://www.w3.org/2000/svg" xmlns:xlink="http://www.w3.org/1999/xlink" version="1.1" width="1000" height="1000" viewBox="0 0 1000 1000" xml:space="preserve">
<desc>Created with Fabric.js 3.5.0</desc>
<defs>
</defs>
<rect x="0" y="0" width="100%" height="100%" fill="rgba(255,255,255,0)"/>
<g transform="matrix(44.9213 0 0 44.9213 499.9999 488.9528)" id="125239">
<path style="stroke: none; stroke-width: 0; stroke-dasharray: none; stroke-linecap: butt; stroke-dashoffset: 0; stroke-linejoin: miter; stroke-miterlimit: 4; is-custom-font: none; font-file-url: none; fill: rgb(57,112,228); fill-rule: nonzero; opacity: 1;" vector-effect="non-scaling-stroke" transform=" translate(-12, -12.1153)" d="M 11.1142 1.43752 C 11.6726 1.16175 12.3274 1.16175 12.8858 1.43752 L 19.9628 4.9333 C 20.5056 5.20144 20.8978 5.70105 21.0293 6.29205 L 22.7955 14.2294 C 22.925 14.8114 22.7882 15.4208 22.4222 15.8914 L 17.496 22.2276 C 17.1171 22.7149 16.5344 23 15.9171 23 H 8.08294 C 7.46563 23 6.88291 22.7149 6.504 22.2276 L 1.57778 15.8914 C 1.21185 15.4208 1.07497 14.8114 1.20446 14.2294 L 2.9707 6.29205 C 3.10221 5.70105 3.49436 5.20144 4.0372 4.9333 L 11.1142 1.43752 Z" stroke-linecap="round"/>
</g>
<g transform="matrix(13.6509 0 0 13.6509 499.9997 499.9997)" id="173418">
<g style="" vector-effect="non-scaling-stroke">
		<g transform="matrix(1 0 0 1 8 -5)" id="Password">
<path style="stroke: none; stroke-width: 1; stroke-dasharray: none; stroke-linecap: butt; stroke-dashoffset: 0; stroke-linejoin: miter; stroke-miterlimit: 4; is-custom-font: none; font-file-url: none; fill: rgb(255,255,255); fill-rule: nonzero; opacity: 1;" transform=" translate(-24, -11)" d="M 27 15 H 21 a 1 1 0 0 1 -1 -1 V 11 a 4 4 0 0 1 8 0 v 3 A 1 1 0 0 1 27 15 Z m -5 -2 h 4 V 11 a 2 2 0 0 0 -4 0 Z" stroke-linecap="round"/>
</g>
		<g transform="matrix(1 0 0 1 -4 4.5)" id="Password">
<path style="stroke: none; stroke-width: 1; stroke-dasharray: none; stroke-linecap: butt; stroke-dashoffset: 0; stroke-linejoin: miter; stroke-miterlimit: 4; is-custom-font: none; font-file-url: none; fill: rgb(255,255,255); fill-rule: nonzero; opacity: 1;" transform=" translate(-12, -20.5)" d="M 21 23 a 1 1 0 0 1 -1 -1 V 17 a 1 1 0 0 0 -1 -1 H 5 a 3 3 0 0 0 -3 3 v 3 a 3 3 0 0 0 3 3 H 21 a 1 1 0 0 0 0 -2 Z" stroke-linecap="round"/>
</g>
		<g transform="matrix(1 0 0 1 -9.4968 4.4968)" id="Password">
<path style="stroke: none; stroke-width: 1; stroke-dasharray: none; stroke-linecap: butt; stroke-dashoffset: 0; stroke-linejoin: miter; stroke-miterlimit: 4; is-custom-font: none; font-file-url: none; fill: rgb(5,147,255); fill-rule: nonzero; opacity: 1;" transform=" translate(-6.5033, -20.4967)" d="M 7.85 19.15 a 0.48 0.48 0 0 0 -0.7 0 l -0.65 0.64 l -0.65 -0.64 a 0.49 0.49 0 0 0 -0.7 0.7 l 0.64 0.65 l -0.64 0.65 a 0.49 0.49 0 0 0 0.7 0.7 l 0.65 -0.64 l 0.65 0.64 a 0.49 0.49 0 1 0 0.7 -0.7 l -0.64 -0.65 l 0.64 -0.65 A 0.48 0.48 0 0 0 7.85 19.15 Z" stroke-linecap="round"/>
</g>
		<g transform="matrix(1 0 0 1 -5.4968 4.4967)" id="Password">
<path style="stroke: none; stroke-width: 1; stroke-dasharray: none; stroke-linecap: butt; stroke-dashoffset: 0; stroke-linejoin: miter; stroke-miterlimit: 4; is-custom-font: none; font-file-url: none; fill: rgb(5,147,255); fill-rule: nonzero; opacity: 1;" transform=" translate(-10.5033, -20.4967)" d="M 11.85 19.15 a 0.48 0.48 0 0 0 -0.7 0 l -0.65 0.64 l -0.65 -0.64 a 0.49 0.49 0 0 0 -0.7 0.7 l 0.64 0.65 l -0.64 0.65 a 0.49 0.49 0 0 0 0.7 0.7 l 0.65 -0.64 l 0.65 0.64 a 0.49 0.49 0 1 0 0.7 -0.7 l -0.64 -0.65 l 0.64 -0.65 A 0.48 0.48 0 0 0 11.85 19.15 Z" stroke-linecap="round"/>
</g>
		<g transform="matrix(1 0 0 1 -1.5 4.5)" id="Password">
<path style="stroke: none; stroke-width: 1; stroke-dasharray: none; stroke-linecap: butt; stroke-dashoffset: 0; stroke-linejoin: miter; stroke-miterlimit: 4; is-custom-font: none; font-file-url: none; fill: rgb(5,147,255); fill-rule: nonzero; opacity: 1;" transform=" translate(-14.5, -20.5)" d="M 15.21 20.5 l 0.64 -0.65 a 0.49 0.49 0 0 0 -0.7 -0.7 l -0.65 0.64 l -0.65 -0.64 a 0.49 0.49 0 0 0 -0.7 0.7 l 0.64 0.65 l -0.64 0.65 a 0.49 0.49 0 0 0 0.7 0.7 l 0.65 -0.64 l 0.65 0.64 a 0.49 0.49 0 1 0 0.7 -0.7 Z" stroke-linecap="round"/>
</g>
		<g transform="matrix(1 0 0 1 8 3)" id="Password">
<rect style="stroke: none; stroke-width: 1; stroke-dasharray: none; stroke-linecap: butt; stroke-dashoffset: 0; stroke-linejoin: miter; stroke-miterlimit: 4; is-custom-font: none; font-file-url: none; fill: rgb(5,147,255); fill-rule: nonzero; opacity: 1;" x="-6" y="-6" rx="3" ry="3" width="12" height="12"/>
</g>
		<g transform="matrix(1 0 0 1 7.9999 2.9939)" id="Password">
<path style="stroke: none; stroke-width: 1; stroke-dasharray: none; stroke-linecap: butt; stroke-dashoffset: 0; stroke-linejoin: miter; stroke-miterlimit: 4; is-custom-font: none; font-file-url: none; fill: rgb(255,255,255); fill-rule: nonzero; opacity: 1;" transform=" translate(-23.9999, -18.9939)" d="M 26 18 a 2 2 0 1 0 -3 1.72 V 21 a 1 1 0 0 0 2 0 V 19.72 A 2 2 0 0 0 26 18 Z" stroke-linecap="round"/>
</g>
</g>
</g>
</svg>