<svg xmlns="http://www.w3.org/2000/svg" xmlns:xlink="http://www.w3.org/1999/xlink" version="1.1" width="1000" height="1000" viewBox="0 0 1000 1000" xml:space="preserve">
<desc>Created with Fabric.js 3.5.0</desc>
<defs>
</defs>
<rect x="0" y="0" width="100%" height="100%" fill="rgba(255,255,255,0)"/>
<g transform="matrix(44.9213 0 0 44.9213 499.9999 488.9528)" id="600482">
<path style="stroke: none; stroke-width: 0; stroke-dasharray: none; stroke-linecap: butt; stroke-dashoffset: 0; stroke-linejoin: miter; stroke-miterlimit: 4; is-custom-font: none; font-file-url: none; fill: rgb(57,112,228); fill-rule: nonzero; opacity: 1;" vector-effect="non-scaling-stroke" transform=" translate(-12, -12.1153)" d="M 11.1142 1.43752 C 11.6726 1.16175 12.3274 1.16175 12.8858 1.43752 L 19.9628 4.9333 C 20.5056 5.20144 20.8978 5.70105 21.0293 6.29205 L 22.7955 14.2294 C 22.925 14.8114 22.7882 15.4208 22.4222 15.8914 L 17.496 22.2276 C 17.1171 22.7149 16.5344 23 15.9171 23 H 8.08294 C 7.46563 23 6.88291 22.7149 6.504 22.2276 L 1.57778 15.8914 C 1.21185 15.4208 1.07497 14.8114 1.20446 14.2294 L 2.9707 6.29205 C 3.10221 5.70105 3.49436 5.20144 4.0372 4.9333 L 11.1142 1.43752 Z" stroke-linecap="round"/>
</g>
<g transform="matrix(17.4171 0 0 17.4171 500 499.9999)" id="93575">
<path style="stroke: none; stroke-width: 1; stroke-dasharray: none; stroke-linecap: butt; stroke-dashoffset: 0; stroke-linejoin: miter; stroke-miterlimit: 4; is-custom-font: none; font-file-url: none; fill: rgb(255,255,255); fill-rule: nonzero; opacity: 1;" vector-effect="non-scaling-stroke" transform=" translate(-5.4585, -11.9705)" d="m 10.562 9.518 c -1.263 -5.56 -4.242 -7.387 -4.562 -8.086 c -0.262 -0.408 -0.508 -0.879 -0.711 -1.372 l -0.022 -0.06 c 0 0.019 0 0.031 -0.005 0.049 v 0.013 v 0.039 v 0.015 v 0.026 v 0.026 v 0.012 s 0 0.009 0 0.013 v -0.001 v 0.021 c 0 0.003 0.001 0.007 0.001 0.011 s 0 0.007 -0.001 0.011 v 0.02 v 0.032 l -0.009 0.05 v 0.01 v 0.006 s 0 0.004 0 0.006 v 0.041 h -0.005 v 0.016 h -0.036 v 0.057 h -0.006 v 0.046 h -0.024 v 0.038 v 0.003 s 0 0.002 0 0.003 v 0.01 v 0.005 s 0 0.003 0 0.005 l -0.023 0.017 l -0.005 0.007 v 0.022 h -0.005 v 0.018 h -0.006 v 0.045 h -0.006 v 0.019 h -0.005 v 0.018 h -0.005 v 0.022 h -0.045 v 0.015 h -0.005 v 0.019 h -0.005 v 0.015 h -0.006 v 0.023 h -0.005 v 0.006 s 0 0 0 0 v 0.003 s 0 0.002 0 0.004 c -0.019 0.009 -0.035 0.021 -0.049 0.034 c -0.003 0.003 -0.006 0.006 -0.009 0.01 s 0 0 0 0 v 0.058 h -0.005 v -0.008 h -0.005 v 0.01 h -0.005 v 0.008 h -0.005 v 0.022 h -0.061 v 0.01 h -0.01 v 0.02 h -0.03 v 0.01 h -0.005 v 0.006 h -0.01 v 0.01 h -0.03 v 0.006 h -0.005 v 0.058 h -0.006 v 0.01 h -0.005 v 0.006 h -0.005 v 0.006 c -0.004 0.006 -0.009 0.011 -0.014 0.016 l -0.012 0.01 c -0.014 0.01 -0.027 0.021 -0.039 0.032 c -0.008 0.006 -0.015 0.011 -0.022 0.017 l -0.049 0.039 l -0.074 0.062 c -0.057 0.047 -0.117 0.1 -0.186 0.159 c -0.169 0.148 -0.37 0.338 -0.6 0.568 l -0.015 0.015 c -2.234 2.374 -3.637 5.553 -3.729 9.059 v 0.018 c -0.008 0.155 -0.013 0.336 -0.013 0.518 c 0 0.22 0.007 0.439 0.02 0.656 l -0.001 -0.03 v 0.009 c 0.112 1.765 0.628 3.389 1.456 4.808 l -0.028 -0.052 c 0.308 0.54 0.614 0.999 0.948 1.435 l -0.022 -0.03 c 0.727 0.963 1.555 1.795 2.483 2.503 l 0.031 0.023 c 0.255 0.766 0.403 1.647 0.403 2.563 c 0 0.076 -0.001 0.152 -0.003 0.227 v -0.011 l 0.644 0.215 c -0.027 -0.303 -0.043 -0.655 -0.043 -1.01 c 0 -0.533 0.035 -1.058 0.102 -1.572 l -0.006 0.061 c 0.065 -0.257 0.186 -0.48 0.35 -0.664 l -0.001 0.002 c 0.298 -0.213 0.559 -0.424 0.806 -0.651 l -0.006 0.006 c 0.018 -0.019 0.028 -0.036 0.044 -0.054 c 2.227 -2.09 3.614 -5.051 3.614 -8.337 c 0 -0.801 -0.082 -1.582 -0.239 -2.337 l 0.013 0.074 z" stroke-linecap="round"/>
</g>
</svg>