<svg xmlns="http://www.w3.org/2000/svg" xmlns:xlink="http://www.w3.org/1999/xlink" viewBox="0 0 85 85" fill="#fff" fill-rule="evenodd" stroke="#000" stroke-linecap="round" stroke-linejoin="round"><use xlink:href="#A" x="2.5" y="2.5"/><symbol id="A" overflow="visible"><g stroke="none"><path d="M0 2.634h80v21.333H0z" fill="#9d5025"/><path d="M0 0h80v20.762H0z" fill="#f58536"/><path d="M0 30.326h80v22.268H0z" fill="#9d5025"/><path d="M0 28.626h80v20.762H0z" fill="#f58536"/><path d="M0 58.433h80V80H0z" fill="#9d5025"/><path d="M0 56.02h80v20.762H0z" fill="#f58536"/><path d="M9.86 16.584H8.031V7.397h-2.39V6.099h.179c1.1 0 2.39-.285 2.689-1.895v-.246h1.338zM20.162 5.788c-2.033 3.202-3.269 6.922-3.585 10.796H14.64c.366-3.824 1.661-7.474 3.753-10.576h-4.995v-1.83h6.764zm8.174 10.796h-6.669c0-5.502 4.78-5.372 4.78-9.304 0-1.038-.406-1.907-1.422-1.907-1.374 0-1.589 1.298-1.589 2.595h-1.745c0-2.517.932-4.075 3.37-4.075.863-.117 1.729.195 2.355.851s.947 1.583.872 2.523c0 4.204-3.717 4.464-4.577 7.565h4.625zm3.86 0h-1.828v-2.349h1.84zm6.669 0h-1.828V7.397h-2.39V6.099h.179c1.099 0 2.39-.285 2.689-1.895v-.246h1.338zm6.884.247c-2.892 0-3.43-2.427-3.43-6.06s.633-6.851 3.585-6.851c2.008 0 3.083.999 3.083 3.075H47.17c0-.727-.311-1.648-1.195-1.648-1.721 0-1.817 2.518-1.817 4.36h0c.453-.857 1.315-1.36 2.223-1.298 1.566 0 2.82 1.298 2.82 3.776.048 2.92-1.028 4.659-3.454 4.659zm7.242-.247h-1.84v-2.349h1.84zm5.366.247c-2.199 0-3.418-1.531-3.418-6.488s1.195-6.488 3.418-6.488 3.418 1.544 3.418 6.488-1.231 6.501-3.418 6.501zm7.171-.247h-1.805v-2.349h1.84zm5.366.247c-2.199 0-3.418-1.531-3.418-6.488s1.195-6.488 3.418-6.488 3.418 1.544 3.418 6.488-1.195 6.501-3.382 6.501zm.035 15.753c2.187 0 3.418 1.531 3.418 6.488s-1.195 6.488-3.418 6.488-3.442-1.583-3.442-6.527 1.195-6.449 3.442-6.449zm-7.171 10.29h1.84v2.401h-1.876zm-8.27-8.149h.179c1.099 0 2.39-.285 2.689-1.895v-.247h1.339v12.691h-1.876v-9.226h-2.39zm-4.302 8.149h1.84v2.401H51.15zm-5.211-10.29c2.008 0 3.083.999 3.083 3.076H47.17c0-.727-.311-1.648-1.195-1.648-1.721 0-1.817 2.517-1.817 4.36h0c.453-.857 1.315-1.36 2.223-1.298 1.566 0 2.82 1.298 2.82 3.776 0 2.92-1.076 4.646-3.502 4.646-2.892 0-3.43-2.427-3.43-6.06s.681-6.852 3.705-6.852zm-11.294 2.141h.179c1.1 0 2.39-.285 2.689-1.895v-.247h1.339v12.691h-1.852v-9.226h-2.39zm-4.302 8.149h1.84v2.401h-1.852zm-5.33-8.863c-1.374 0-1.59 1.298-1.59 2.595H21.69c0-2.517.932-4.075 3.37-4.075.863-.117 1.729.195 2.355.85s.947 1.583.872 2.523c0 4.204-3.717 4.464-4.577 7.552h4.625v1.817h-6.669c0-5.502 4.78-5.372 4.78-9.317 0-1.064-.406-1.947-1.422-1.947zm-11.64-1.181h6.752v1.609c-2.033 3.203-3.268 6.922-3.585 10.796H14.64c.366-3.824 1.661-7.473 3.753-10.576h-4.995zm-7.732 1.895h.179c1.1 0 2.39-.285 2.689-1.895v-.247h1.339v12.691H8.031v-9.226h-2.39zm65.252 25.278c2.187 0 3.418 1.531 3.418 6.488s-1.195 6.488-3.418 6.488-3.442-1.622-3.442-6.527 1.195-6.449 3.442-6.449zm-7.171 10.29h1.84v2.362h-1.876zm-5.33-8.863c-1.374 0-1.589 1.298-1.589 2.595h-1.793c0-2.517.932-4.075 3.37-4.075.863-.117 1.729.195 2.355.85s.947 1.583.872 2.523c0 4.191-3.705 4.464-4.577 7.552h4.625v1.778h-6.669c0-5.502 4.78-5.385 4.78-9.317 0-1.038-.394-1.907-1.41-1.907zm-7.23 8.863h1.84v2.362H51.15zm-5.223-10.29c2.008 0 3.083.999 3.083 3.075H47.17c0-.74-.311-1.648-1.195-1.648-1.721 0-1.817 2.517-1.817 4.36h0c.453-.857 1.315-1.36 2.223-1.298 1.566 0 2.82 1.298 2.82 3.776 0 2.92-1.076 4.646-3.502 4.646-2.892 0-3.43-2.427-3.43-6.06s.681-6.852 3.705-6.852zM34.67 62.144h.179c1.099 0 2.39-.285 2.689-1.895v-.247h1.338v12.652h-1.84v-9.213h-2.39zm-4.302 8.149h1.84v2.362h-1.84zm-5.33-8.863c-1.374 0-1.59 1.298-1.59 2.595h-1.757c0-2.517.932-4.075 3.37-4.075.863-.117 1.729.195 2.355.85s.947 1.583.872 2.523c0 4.191-3.717 4.464-4.577 7.552h4.625v1.778h-6.669c0-5.502 4.78-5.385 4.78-9.317 0-1.038-.406-1.907-1.422-1.907zm-11.64-1.181h6.764v1.609c-2.033 3.203-3.268 6.922-3.585 10.796H14.64c.366-3.824 1.661-7.474 3.753-10.576h-4.995zm-7.744 1.895h.179c1.1 0 2.39-.285 2.689-1.895v-.247H9.86v12.652H8.031v-9.213h-2.39z"/><g fill="#f58536"><use xlink:href="#C"/><use xlink:href="#C" x="12.573"/><use xlink:href="#D"/><use xlink:href="#E"/><use xlink:href="#D" y="27.419"/><use xlink:href="#E" y="27.419"/><use xlink:href="#E" y="-28.639"/></g></g></symbol><defs ><path id="C" d="M58.357 5.554c-1.255 0-1.578 1.298-1.578 5.022s.323 5.022 1.578 5.022 1.578-1.298 1.578-5.022-.323-5.022-1.578-5.022z"/><path id="D" d="M70.93 44.237c1.255 0 1.578-1.298 1.578-5.022s-.323-5.022-1.578-5.022-1.578 1.298-1.578 5.022.311 5.022 1.578 5.022z"/><path id="E" d="M45.904 44.237c1.123 0 1.518-1.298 1.518-2.712 0-1.752-.466-2.738-1.518-2.738-1.339 0-1.578 1.298-1.578 2.829s.454 2.621 1.578 2.621z"/></defs></svg>