<svg xmlns="http://www.w3.org/2000/svg" xmlns:xlink="http://www.w3.org/1999/xlink" viewBox="0 0 85 85" fill="#fff" fill-rule="evenodd" stroke="#000" stroke-linecap="round" stroke-linejoin="round"><use xlink:href="#A" x="2.5" y="2.5"/><symbol id="A" overflow="visible"><g stroke="none"><path d="M0 41.579C0 20.293 17.84 3.157 40 3.157s40 17.136 40 38.422S62.16 80 40 80 0 62.864 0 41.579z" fill="#9d5025"/><path d="M0 38.422C0 17.136 17.84 0 40 0s40 17.136 40 38.422-17.84 38.422-40 38.422S0 59.707 0 38.422z" fill="#f58536"/><path d="M78.16 38.548l-14.197-7.866v4.71H43.286V15.53h4.903L40 1.906 31.811 15.53h4.903v19.861H16.037v-4.71L1.84 38.548l14.197 7.879v-4.722h20.677v19.861h-4.903L40 75.202l8.189-13.636h-4.903V41.704h20.677v4.722l14.197-7.879z"/><path d="M29.05 47.677c-4.062 0-7.098-2.955-7.098-5.593v-.594c.178-2.634 1.948-4.922 4.522-5.846l.25-.063v-.404c-.007-4.103 2.967-7.654 7.14-8.527s8.415 1.169 10.185 4.904l.171.366.342-.227a4.57 4.57 0 0 1 4.488-.291c1.439.697 2.369 2.09 2.427 3.638v.278h.302c3.341.372 5.959 2.933 6.283 6.149v.593c0 2.639-3.036 5.594-7.098 5.594z" fill="#f58536"/><path d="M35.767 27.702c3.045-.001 5.81 1.707 7.072 4.369l.815 1.73 1.604-1.073a3.21 3.21 0 0 1 3.156-.211c1.013.489 1.668 1.471 1.707 2.559v1.401l1.472.114c2.654.335 4.738 2.348 5.074 4.899v.594c0 2.008-2.524 4.331-5.784 4.331H29.05c-3.26 0-5.784-2.336-5.784-4.331v-.594c.185-2.07 1.575-3.861 3.589-4.621l1.223-.341v-1.376c-.003-1.975.811-3.869 2.263-5.267s3.424-2.183 5.479-2.183m0-2.525c-5.543.001-10.105 4.189-10.358 9.508-2.759 1.275-4.584 3.883-4.772 6.818v.594c0 3.649 3.944 6.856 8.413 6.856H50.95c4.483 0 8.413-3.207 8.413-6.856v-.594c-.297-3.585-3.015-6.554-6.678-7.298-.323-1.64-1.402-3.051-2.934-3.839s-3.353-.866-4.953-.215c-1.863-3.068-5.28-4.957-8.978-4.962z"/></g></symbol></svg>