<svg xmlns="http://www.w3.org/2000/svg" xmlns:xlink="http://www.w3.org/1999/xlink" version="1.1" width="1000" height="1000" viewBox="0 0 1000 1000" xml:space="preserve">
<desc>Created with Fabric.js 3.5.0</desc>
<defs>
</defs>
<rect x="0" y="0" width="100%" height="100%" fill="rgba(255,255,255,0)"/>
<g transform="matrix(44.9213 0 0 44.9213 499.9999 488.9528)" id="343674">
<path style="stroke: none; stroke-width: 0; stroke-dasharray: none; stroke-linecap: butt; stroke-dashoffset: 0; stroke-linejoin: miter; stroke-miterlimit: 4; is-custom-font: none; font-file-url: none; fill: rgb(57,112,228); fill-rule: nonzero; opacity: 1;" vector-effect="non-scaling-stroke" transform=" translate(-12, -12.1153)" d="M 11.1142 1.43752 C 11.6726 1.16175 12.3274 1.16175 12.8858 1.43752 L 19.9628 4.9333 C 20.5056 5.20144 20.8978 5.70105 21.0293 6.29205 L 22.7955 14.2294 C 22.925 14.8114 22.7882 15.4208 22.4222 15.8914 L 17.496 22.2276 C 17.1171 22.7149 16.5344 23 15.9171 23 H 8.08294 C 7.46563 23 6.88291 22.7149 6.504 22.2276 L 1.57778 15.8914 C 1.21185 15.4208 1.07497 14.8114 1.20446 14.2294 L 2.9707 6.29205 C 3.10221 5.70105 3.49436 5.20144 4.0372 4.9333 L 11.1142 1.43752 Z" stroke-linecap="round"/>
</g>
<g transform="matrix(17.2088 0 0 17.2088 499.9998 499.9998)" id="168028">
<g style="" vector-effect="non-scaling-stroke">
		<g transform="matrix(1 0 0 1 -9 7.125)">
<path style="stroke: none; stroke-width: 1; stroke-dasharray: none; stroke-linecap: butt; stroke-dashoffset: 0; stroke-linejoin: miter; stroke-miterlimit: 4; is-custom-font: none; font-file-url: none; fill: rgb(255,255,255); fill-rule: nonzero; opacity: 1;" transform=" translate(-3, -19.125)" d="M 4.75 20.75 A 0.25 0.25 0 0 0 5 20.5 v -2 a 1 1 0 0 0 -1 -1 H 2 a 1 1 0 0 0 -1 1 v 2 a 0.25 0.25 0 0 0 0.25 0.25 Z" stroke-linecap="round"/>
</g>
		<g transform="matrix(1 0 0 1 -3 4.625)">
<path style="stroke: none; stroke-width: 1; stroke-dasharray: none; stroke-linecap: butt; stroke-dashoffset: 0; stroke-linejoin: miter; stroke-miterlimit: 4; is-custom-font: none; font-file-url: none; fill: rgb(255,255,255); fill-rule: nonzero; opacity: 1;" transform=" translate(-9, -16.625)" d="M 10.75 20.75 A 0.25 0.25 0 0 0 11 20.5 v -7 a 1 1 0 0 0 -1 -1 H 8 a 1 1 0 0 0 -1 1 v 7 a 0.25 0.25 0 0 0 0.25 0.25 Z" stroke-linecap="round"/>
</g>
		<g transform="matrix(1 0 0 1 3 5.625)">
<path style="stroke: none; stroke-width: 1; stroke-dasharray: none; stroke-linecap: butt; stroke-dashoffset: 0; stroke-linejoin: miter; stroke-miterlimit: 4; is-custom-font: none; font-file-url: none; fill: rgb(255,255,255); fill-rule: nonzero; opacity: 1;" transform=" translate(-15, -17.625)" d="M 16.75 20.75 A 0.25 0.25 0 0 0 17 20.5 v -5 a 1 1 0 0 0 -1 -1 H 14 a 1 1 0 0 0 -1 1 v 5 a 0.25 0.25 0 0 0 0.25 0.25 Z" stroke-linecap="round"/>
</g>
		<g transform="matrix(1 0 0 1 9 2.125)">
<path style="stroke: none; stroke-width: 1; stroke-dasharray: none; stroke-linecap: butt; stroke-dashoffset: 0; stroke-linejoin: miter; stroke-miterlimit: 4; is-custom-font: none; font-file-url: none; fill: rgb(255,255,255); fill-rule: nonzero; opacity: 1;" transform=" translate(-21, -14.125)" d="M 22.75 20.75 A 0.25 0.25 0 0 0 23 20.5 V 8.5 a 1 1 0 0 0 -1 -1 H 20 a 1 1 0 0 0 -1 1 v 12 a 0.25 0.25 0 0 0 0.25 0.25 Z" stroke-linecap="round"/>
</g>
		<g transform="matrix(1 0 0 1 0.494 -5.2504)">
<path style="stroke: none; stroke-width: 1; stroke-dasharray: none; stroke-linecap: butt; stroke-dashoffset: 0; stroke-linejoin: miter; stroke-miterlimit: 4; is-custom-font: none; font-file-url: none; fill: rgb(255,255,255); fill-rule: nonzero; opacity: 1;" transform=" translate(-12.494, -6.7496)" d="M 3.5 13.5 a 2 2 0 0 0 2 -2 a 1.981 1.981 0 0 0 -0.1 -0.6 l 3.167 -2.64 A 1.955 1.955 0 0 0 11.011 7.8 l 2.5 0.834 A 2 2 0 0 0 17.5 8.5 a 1.964 1.964 0 0 0 -0.231 -0.912 l 3.287 -3.835 A 1.994 1.994 0 1 0 19.5 2 a 1.962 1.962 0 0 0 0.093 0.571 L 16.13 6.612 a 1.932 1.932 0 0 0 -2.141 0.593 l -2.5 -0.833 A 1.995 1.995 0 1 0 7.6 7.1 L 4.436 9.744 A 1.975 1.975 0 0 0 3.5 9.5 a 2 2 0 0 0 0 4 Z" stroke-linecap="round"/>
</g>
		<g transform="matrix(1 0 0 1 0 11)">
<path style="stroke: none; stroke-width: 1; stroke-dasharray: none; stroke-linecap: butt; stroke-dashoffset: 0; stroke-linejoin: miter; stroke-miterlimit: 4; is-custom-font: none; font-file-url: none; fill: rgb(255,255,255); fill-rule: nonzero; opacity: 1;" transform=" translate(-12, -23)" d="M 23 22 H 1 a 1.016 1.016 0 0 0 -1 1 a 1 1 0 0 0 1 1 H 23 a 1 1 0 0 0 1 -1 A 1.015 1.015 0 0 0 23 22 Z" stroke-linecap="round"/>
</g>
</g>
</g>
</svg>