<?xml version="1.0" standalone="no"?>
<!DOCTYPE svg PUBLIC "-//W3C//DTD SVG 20010904//EN"
 "http://www.w3.org/TR/2001/REC-SVG-20010904/DTD/svg10.dtd">
<svg version="1.0" xmlns="http://www.w3.org/2000/svg"
 width="898.000000pt" height="285.000000pt" viewBox="0 0 898.000000 285.000000"
 preserveAspectRatio="xMidYMid meet">
<metadata>
Created by potrace 1.16, written by Peter Selinger 2001-2019
</metadata>
<g transform="translate(0.000000,285.000000) scale(0.100000,-0.100000)"
fill="#3970e4" stroke="none">
<path d="M3613 2590 c-137 -45 -243 -165 -274 -311 -16 -75 -6 -212 21 -279
32 -80 86 -148 154 -192 79 -51 141 -68 246 -68 143 0 238 38 325 131 89 95
129 239 106 379 -24 148 -101 254 -229 317 -71 36 -82 38 -181 40 -84 2 -119
-1 -168 -17z m272 -134 c61 -29 97 -65 127 -131 19 -42 23 -67 23 -150 0 -121
-24 -185 -91 -244 -52 -45 -100 -61 -185 -61 -152 1 -249 89 -267 242 -20 172
43 310 162 352 67 24 172 20 231 -8z"/>
<path d="M5606 2532 c-2 -4 -12 -45 -20 -92 -17 -88 -25 -99 -66 -100 -39 0
-52 -14 -48 -51 3 -32 5 -34 45 -37 l42 -3 3 -208 c3 -229 7 -242 71 -281 55
-34 174 -25 235 18 20 14 -35 96 -57 86 -9 -4 -30 -9 -47 -11 -57 -9 -64 15
-64 219 l0 178 80 0 80 0 0 50 0 50 -80 0 -80 0 0 95 0 95 -44 0 c-25 0 -47
-3 -50 -8z"/>
<path d="M4564 2346 c-17 -7 -47 -28 -67 -46 -39 -33 -39 -33 -51 23 -6 26 -9
27 -66 27 l-60 0 2 -402 3 -403 68 -3 67 -3 0 126 c0 69 2 125 4 125 2 0 24
-11 47 -25 87 -49 215 -28 286 46 61 64 78 120 78 249 0 108 -2 119 -30 175
-17 33 -47 72 -68 89 -34 27 -48 31 -110 33 -46 2 -83 -2 -103 -11z m127 -127
c34 -37 44 -79 43 -179 -2 -149 -84 -228 -198 -190 -66 22 -76 46 -76 189 0
139 6 156 64 192 20 12 49 19 84 19 47 0 58 -4 83 -31z"/>
<path d="M5096 2346 c-85 -32 -126 -87 -126 -169 0 -88 38 -132 148 -168 140
-46 174 -79 138 -135 -33 -50 -108 -56 -186 -15 -57 30 -75 27 -100 -16 -23
-40 -25 -38 45 -75 50 -27 183 -37 241 -18 152 49 195 235 72 310 -18 11 -68
32 -112 46 -86 29 -116 52 -116 88 0 61 95 84 185 46 26 -11 50 -20 55 -20 5
0 18 16 31 36 24 40 26 38 -46 76 -52 28 -173 35 -229 14z"/>
<path d="M6220 2339 c-19 -11 -46 -36 -60 -54 -14 -19 -28 -35 -31 -35 -3 0
-10 21 -15 48 l-9 47 -57 3 -58 3 0 -301 0 -300 70 0 70 0 0 189 c0 179 1 190
23 222 33 50 81 71 143 64 58 -7 58 -7 69 70 6 35 4 49 -6 56 -25 16 -103 9
-139 -12z"/>
<path d="M6640 2351 c-85 -26 -161 -103 -186 -189 -34 -116 -3 -265 69 -340
60 -63 99 -77 218 -77 98 0 110 2 164 30 80 41 88 57 49 95 l-30 31 -60 -28
c-139 -64 -259 -15 -280 115 l-7 42 194 0 c107 0 200 4 208 9 20 13 10 135
-17 186 -44 87 -127 135 -232 134 -36 0 -76 -4 -90 -8z m160 -106 c32 -17 49
-43 61 -92 l7 -33 -145 0 -144 0 7 23 c24 77 72 117 142 117 24 0 56 -7 72
-15z"/>
<path d="M7253 2339 c-106 -41 -173 -151 -173 -284 0 -123 51 -222 145 -280
46 -28 54 -30 155 -30 99 0 111 2 165 30 80 41 88 57 49 95 l-30 31 -60 -28
c-141 -65 -259 -14 -281 123 l-6 34 194 0 c107 0 200 4 208 9 21 13 10 135
-17 187 -27 52 -90 107 -141 122 -58 18 -149 14 -208 -9z m187 -94 c30 -16 52
-49 64 -97 l6 -28 -145 0 -146 0 7 23 c24 77 72 117 142 117 24 0 56 -7 72
-15z"/>
<path d="M1272 2255 c-16 -13 -34 -37 -40 -52 -6 -16 -70 -325 -142 -687 -90
-448 -130 -669 -126 -692 10 -48 66 -94 117 -94 51 0 95 22 113 58 18 36 276
1324 276 1381 0 37 -5 49 -36 77 -30 29 -43 34 -84 34 -37 0 -55 -6 -78 -25z"/>
<path d="M577 2014 c-15 -5 -332 -374 -380 -444 -22 -32 -22 -99 0 -130 10
-14 93 -116 185 -226 108 -130 178 -206 198 -214 38 -16 105 -7 132 17 31 27
50 79 42 118 -4 24 -44 81 -133 188 -69 84 -131 159 -138 168 -10 13 10 42
126 182 80 97 141 179 144 196 8 40 -8 93 -38 121 -24 23 -97 35 -138 24z"/>
<path d="M1738 2004 c-36 -19 -58 -63 -58 -113 0 -44 0 -43 187 -267 51 -62
93 -115 93 -119 0 -4 -42 -57 -93 -119 -187 -224 -187 -223 -187 -267 0 -80
49 -129 128 -129 25 0 49 8 67 22 15 12 106 115 201 229 181 217 196 245 174
303 -14 38 -347 439 -382 460 -32 20 -94 20 -130 0z"/>
<path d="M2559 1372 c-228 -76 -343 -331 -259 -576 37 -109 109 -188 218 -239
90 -42 227 -50 329 -19 112 34 195 104 247 209 33 66 45 123 46 214 0 183 -91
327 -255 401 -70 31 -244 36 -326 10z m297 -147 c49 -29 97 -95 114 -155 5
-19 10 -72 10 -117 0 -201 -109 -313 -294 -301 -114 8 -182 53 -228 153 -34
73 -33 227 1 302 25 56 84 117 129 134 83 33 197 26 268 -16z"/>
<path d="M3505 1124 c-16 -8 -46 -28 -67 -44 l-36 -29 -9 37 c-9 37 -9 37 -66
40 l-57 3 0 -401 0 -400 70 0 70 0 0 120 c0 66 3 120 6 120 3 0 20 -10 37 -22
42 -30 141 -37 202 -14 124 48 193 206 165 381 -15 92 -53 161 -109 197 -38
23 -56 28 -110 28 -40 0 -78 -6 -96 -16z m115 -113 c44 -31 55 -67 55 -176 0
-82 -4 -106 -20 -134 -45 -76 -119 -98 -195 -59 l-45 23 -3 152 -3 152 36 27
c60 45 123 51 175 15z"/>
<path d="M4093 1127 c-68 -25 -120 -73 -153 -141 -31 -63 -32 -69 -28 -163 5
-111 24 -161 86 -226 94 -98 312 -104 419 -12 l36 31 -30 34 -31 35 -60 -29
c-114 -54 -223 -30 -263 58 -10 23 -19 56 -19 73 l0 33 203 2 202 3 -2 67 c-2
114 -67 208 -162 236 -48 15 -156 14 -198 -1z m177 -102 c33 -17 60 -61 60
-100 l0 -25 -140 0 c-101 0 -140 3 -140 12 0 26 41 94 67 110 35 22 114 23
153 3z"/>
<path d="M4810 1119 c-25 -11 -55 -29 -67 -41 l-22 -20 -9 33 c-8 33 -10 34
-65 37 l-57 3 0 -301 0 -300 70 0 70 0 0 223 0 222 34 23 c80 55 161 49 194
-15 8 -15 12 -93 12 -237 l0 -216 75 0 75 0 0 183 c0 221 -10 296 -44 348 -51
77 -168 102 -266 58z"/>
<path d="M5345 1122 c-86 -40 -128 -125 -106 -210 16 -56 64 -95 160 -127 121
-40 153 -76 121 -135 -23 -44 -120 -49 -188 -9 -18 10 -42 19 -52 19 -18 0
-60 -48 -60 -69 0 -6 24 -23 53 -38 47 -25 62 -28 152 -28 88 0 105 3 143 25
60 34 95 95 95 164 0 88 -38 125 -174 171 -101 35 -119 48 -119 90 0 24 7 39
22 49 31 22 107 20 165 -5 l48 -20 27 32 c32 38 27 49 -36 82 -59 30 -196 35
-251 9z"/>
<path d="M5933 1124 c-60 -22 -126 -84 -154 -146 -20 -44 -24 -70 -24 -148 0
-84 3 -102 28 -152 52 -105 143 -158 272 -158 121 0 211 54 262 158 25 50 28
68 28 152 0 78 -4 104 -23 145 -51 111 -143 166 -275 164 -40 0 -91 -7 -114
-15z m207 -114 c41 -29 60 -87 60 -183 -1 -140 -46 -201 -150 -201 -103 0
-152 65 -152 203 0 117 36 185 107 204 35 10 106 -2 135 -23z"/>
<path d="M7384 1121 c-18 -11 -45 -35 -60 -55 -31 -39 -44 -38 -44 4 0 54 -7
60 -71 60 l-59 0 0 -300 0 -300 70 0 70 0 0 181 c0 202 7 231 64 272 24 17 45
22 96 22 l65 1 12 59 c14 71 10 75 -62 75 -32 0 -61 -7 -81 -19z"/>
<path d="M7787 1126 c-153 -57 -223 -240 -161 -427 20 -63 77 -127 138 -155
94 -44 243 -25 313 40 l35 32 -27 32 c-15 18 -31 32 -36 32 -5 0 -28 -12 -50
-27 -53 -35 -134 -38 -176 -7 -98 71 -99 296 -2 367 44 32 99 33 165 3 l58
-27 29 30 c37 36 32 51 -29 87 -40 24 -61 29 -133 31 -56 2 -99 -2 -124 -11z"/>
<path d="M8351 1123 c-64 -23 -134 -96 -156 -164 -23 -67 -23 -179 -1 -247 20
-61 83 -135 140 -165 35 -19 56 -22 146 -22 94 1 110 3 155 27 28 14 58 35 68
46 18 20 18 21 -11 53 l-29 33 -63 -28 c-76 -34 -153 -38 -203 -9 -35 20 -74
88 -79 138 l-3 30 205 5 205 5 -2 65 c-2 109 -49 185 -138 226 -60 28 -165 31
-234 7z m188 -98 c30 -15 61 -68 61 -104 0 -20 -4 -21 -140 -21 -122 0 -140 2
-140 16 0 27 40 89 68 107 34 21 114 22 151 2z"/>
<path d="M6460 919 c0 -233 7 -279 53 -334 38 -47 81 -65 152 -65 64 0 118 20
157 57 31 29 30 30 44 -12 9 -28 13 -30 67 -33 l57 -3 0 301 0 300 -70 0 -70
0 0 -219 0 -220 -36 -27 c-41 -32 -126 -44 -163 -24 -44 23 -51 64 -51 285 l0
205 -70 0 -70 0 0 -211z"/>
</g>
</svg>
