<svg xmlns="http://www.w3.org/2000/svg" xmlns:xlink="http://www.w3.org/1999/xlink" viewBox="0 0 79.688 85" fill="#fff" fill-rule="evenodd" stroke="#000" stroke-linecap="round" stroke-linejoin="round"><use xlink:href="#A" x="2.344" y="2.5"/><symbol id="A" overflow="visible"><g stroke="none"><path d="M0 16.727C0 9.441 5.756 3.576 12.906 3.576h49.189C69.244 3.576 75 9.441 75 16.727v50.123C75 74.135 69.244 80 62.094 80H12.906C5.756 80 0 74.135 0 66.849z" fill="#19486f"/><path d="M0 13.151C0 5.865 5.756 0 12.906 0h49.189C69.244 0 75 5.865 75 13.151v50.123c0 7.286-5.756 13.151-12.906 13.151H12.906C5.756 76.424 0 70.559 0 63.273z" fill="#2e73b8"/><path d="M8.887 8.392h4.387l2.094 10.541h0l2.108-10.541h4.458v14.924h-2.759V11.406h0l-2.604 11.911h-2.335l-2.604-11.911h0v11.911H8.887z"/><use xlink:href="#C"/><use xlink:href="#C" x="14.476"/><path d="M56.604 25.163l-1.741-1.846a3.83 3.83 0 0 1-.906.231 7.62 7.62 0 0 1-1.047 0c-4.429 0-4.981-3.216-4.981-7.758s.552-7.758 4.981-7.758 4.981 3.216 4.981 7.758c.202 2.088-.191 4.19-1.132 6.056l1.585 1.629zm-3.693-3.764c1.741 0 2.024-1.529 2.024-5.537s-.283-5.537-2.024-5.537-2.038 1.543-2.038 5.537.297 5.537 2.038 5.537zm6.268 1.917V8.392h2.958v12.459h5.236v2.466z"/></g></symbol><defs ><path id="C" d="M25.854 18.659v.433c0 1.442.396 2.293 1.953 2.293.484.026.956-.161 1.295-.515s.512-.838.474-1.331c0-1.355-.679-1.86-2.632-2.552-2.632-.923-3.835-2.033-3.835-4.513 0-2.884 1.741-4.326 4.528-4.326s4.528 1.154 4.528 4.009v.447h-2.83c0-1.442-.467-2.221-1.599-2.221-.464-.057-.928.107-1.258.445a1.56 1.56 0 0 0-.426 1.285c0 .923.269 1.442 1.514 2.033l2.278 1.009c2.222.981 2.83 2.134 2.83 3.951 0 3.158-1.882 4.571-5.08 4.571s-4.656-1.586-4.656-4.326v-.692z"/></defs></svg>